<svg width="32" height="32" viewBox="0 0 32 32" fill="none" xmlns="http://www.w3.org/2000/svg">
<path d="M31.804 5.52826L26.4707 0.194998C26.2107 -0.0649994 25.7881 -0.0649994 25.5281 0.194998L23.9988 1.7243L25.1374 2.86297C25.3974 3.12297 25.3974 3.54565 25.1374 3.80565C25.0068 3.93496 24.8361 4.00034 24.6654 4.00034C24.4948 4.00034 24.3241 3.93502 24.1935 3.80565L23.0562 2.66697L21.3322 4.39096L23.8041 6.86293C24.0641 7.12293 24.0641 7.54561 23.8041 7.80561C23.6735 7.93492 23.5028 8.0003 23.3321 8.0003C23.1615 8.0003 22.9908 7.93498 22.8602 7.80561L20.3895 5.33364L18.6655 7.05762L19.8042 8.19629C20.0642 8.45629 20.0642 8.87898 19.8042 9.13897C19.6735 9.26828 19.5029 9.33366 19.3322 9.33366C19.1615 9.33366 18.9909 9.26835 18.8602 9.13897L17.7229 8.0003L15.9989 9.72428L18.4709 12.1963C18.7309 12.4563 18.7309 12.8789 18.4709 13.1389C18.3402 13.2682 18.1696 13.3336 17.9989 13.3336C17.8282 13.3336 17.6576 13.2683 17.5269 13.1389L15.0562 10.667L13.3322 12.3909L14.4709 13.5296C14.7309 13.7896 14.7309 14.2123 14.4709 14.4723C14.3402 14.6016 14.1696 14.667 13.9989 14.667C13.8282 14.667 13.6576 14.6017 13.5269 14.4723L12.3896 13.3336L10.6656 15.0576L13.1376 17.5296C13.3976 17.7896 13.3976 18.2123 13.1376 18.4723C13.0069 18.6016 12.8363 18.6669 12.6656 18.6669C12.4949 18.6669 12.3243 18.6016 12.1936 18.4723L9.72297 16.0003L7.99898 17.7243L9.13766 18.8629C9.39766 19.1229 9.39766 19.5456 9.13766 19.8056C9.00698 19.9349 8.83635 20.0003 8.66567 20.0003C8.49498 20.0003 8.32436 19.935 8.19367 19.8056L7.05637 18.6669L5.33239 20.3909L7.80436 22.8629C8.06436 23.1229 8.06436 23.5456 7.80436 23.8056C7.67367 23.9349 7.50305 24.0003 7.33237 24.0003C7.16168 24.0003 6.99106 23.935 6.86037 23.8056L4.38971 21.3336L2.66572 23.0576L3.8044 24.1963C4.0644 24.4563 4.0644 24.8789 3.8044 25.1389C3.67371 25.2683 3.50309 25.3336 3.3324 25.3336C3.16172 25.3336 2.9911 25.2683 2.86041 25.1389L1.72311 24.0003L0.194998 25.5281C-0.0649994 25.7881 -0.0649994 26.2107 0.194998 26.4707L5.52826 31.804C5.65757 31.9347 5.82826 32 5.99894 32C6.16963 32 6.34025 31.9347 6.47094 31.8053L31.804 6.47225C32.064 6.21094 32.064 5.78963 31.804 5.52826Z" fill="#4AA13E"/>
</svg>
