<svg width="32" height="32" viewBox="0 0 32 32" fill="none" xmlns="http://www.w3.org/2000/svg">
<g clip-path="url(#clip0_246_7481)">
<path d="M31.7263 3.24563C31.5362 3.10978 31.2884 3.08562 31.0761 3.1826L27.5337 4.79413C24.1911 1.72749 19.8594 0.0385742 15.337 0.0385742C10.2324 0.0385742 5.34392 2.21536 1.92559 6.01086C1.80836 6.14115 1.74827 6.31324 1.75905 6.48795C1.76982 6.66298 1.85048 6.82625 1.98306 6.9412L5.67341 10.1417C5.94053 10.3739 6.34447 10.3504 6.58351 10.0888C8.8256 7.63577 12.016 6.22867 15.337 6.22867C17.3404 6.22867 19.3304 6.74592 21.0915 7.72525L18.5359 8.88809C18.3237 8.98475 18.1783 9.18721 18.1561 9.41939C18.1336 9.65157 18.2368 9.8782 18.4265 10.0137L29.6367 18.0207C29.7497 18.1011 29.8826 18.1425 30.0165 18.1425C30.1082 18.1425 30.2003 18.1229 30.2868 18.0834C30.4991 17.9868 30.6444 17.7843 30.6666 17.5521L31.9973 3.8406C32.0195 3.6081 31.9163 3.38147 31.7263 3.24563Z" fill="#4AA13E"/>
<path d="M26.3263 21.8584C26.0589 21.6269 25.6552 21.6497 25.4162 21.9113C23.1741 24.365 19.9831 25.7718 16.6627 25.7718C14.6593 25.7718 12.6693 25.2545 10.9082 24.2752L13.4641 23.1123C13.6764 23.0157 13.8214 22.8132 13.8439 22.5807C13.8664 22.3485 13.7632 22.1222 13.5735 21.9867L2.36337 13.98C2.17299 13.8442 1.92546 13.82 1.7132 13.917C1.50094 14.0137 1.35596 14.2161 1.33342 14.4483L0.00305746 28.1595C-0.0194745 28.392 0.0837155 28.6186 0.273441 28.7545C0.46382 28.8903 0.711346 28.9138 0.923604 28.8172L4.46602 27.2057C7.80892 30.2723 12.1406 31.9609 16.663 31.9609C21.7677 31.9609 26.6561 29.7841 30.0745 25.9886C30.1914 25.8586 30.2518 25.6862 30.241 25.5115C30.2302 25.3365 30.1496 25.1732 30.0167 25.0583L26.3263 21.8584Z" fill="#4AA13E"/>
</g>
<defs>
<clipPath id="clip0_246_7481">
<rect width="32" height="32" fill="white"/>
</clipPath>
</defs>
</svg>
