<svg width="32" height="32" viewBox="0 0 32 32" fill="none" xmlns="http://www.w3.org/2000/svg">
<path d="M27.1827 11.9648L27.1345 11.8995L27.1249 11.8804L22.743 5.37549L18.3611 11.8804L18.352 11.8987L18.3033 11.9649C17.6001 12.9171 17.2285 14.0484 17.2285 15.2366C17.2285 18.2774 19.7023 20.7511 22.743 20.7511C25.7836 20.7511 28.2574 18.2773 28.2574 15.2366C28.2575 14.0484 27.8858 12.9169 27.1827 11.9648Z" fill="#4AA13E"/>
<path d="M22.7434 22.6299C18.6666 22.6299 15.35 19.3132 15.35 15.2365C15.35 13.6518 15.8437 12.1417 16.7779 10.8681L19.6585 6.59189L15.2178 0L5.96557 13.7346C4.51088 15.7142 3.74219 18.0613 3.74219 20.5244C3.74219 26.8521 8.89014 32 15.2178 32C21.2134 32 26.149 27.3781 26.6507 21.5101C25.5162 22.2193 24.177 22.6299 22.7434 22.6299Z" fill="#4AA13E"/>
</svg>
