<svg width="32" height="32" viewBox="0 0 32 32" fill="none" xmlns="http://www.w3.org/2000/svg">
<path d="M14.1904 12.625C14.1403 12.5191 14.1129 12.4039 14.1099 12.2868C14.107 12.1696 14.1286 12.0532 14.1733 11.9449C14.218 11.8366 14.2849 11.7388 14.3697 11.6579C14.4544 11.577 14.5552 11.5147 14.6654 11.475L16.0304 10.99C16.2326 10.9151 16.407 10.7801 16.5302 10.6031C16.6534 10.4261 16.7194 10.2156 16.7194 10C16.7194 9.78439 16.6533 9.57394 16.5302 9.39695C16.407 9.21997 16.2326 9.08495 16.0304 9.01004L14.6654 8.52504C14.5552 8.48538 14.4544 8.42309 14.3697 8.34218C14.2849 8.26126 14.218 8.16352 14.1733 8.05522C14.1286 7.94692 14.107 7.83045 14.1099 7.71332C14.1129 7.59618 14.1403 7.48095 14.1904 7.37504L14.8104 6.06504C14.8997 5.86911 14.927 5.65059 14.8886 5.43873C14.8503 5.22686 14.7482 5.03176 14.5959 4.87952C14.4437 4.72728 14.2486 4.62516 14.0367 4.58683C13.8249 4.5485 13.6063 4.57579 13.4104 4.66504L12.1054 5.29004C11.9996 5.34057 11.8843 5.36804 11.767 5.37063C11.6498 5.37321 11.5334 5.35086 11.4254 5.30504C11.3164 5.26207 11.218 5.19603 11.1368 5.11145C11.0557 5.02688 10.9938 4.92576 10.9554 4.81504L10.4704 3.45004C10.3955 3.24785 10.2605 3.07345 10.0835 2.95028C9.9065 2.82712 9.69604 2.7611 9.48042 2.76111C9.26479 2.76111 9.05434 2.82714 8.87735 2.95032C8.70037 3.07349 8.56535 3.2479 8.49044 3.45009L8.00544 4.81504C7.96488 4.92463 7.90209 5.02465 7.82101 5.10881C7.73993 5.19296 7.64232 5.25943 7.53432 5.30404C7.42631 5.34865 7.31024 5.37043 7.19341 5.36802C7.07658 5.3656 6.96151 5.33904 6.85544 5.29L5.54544 4.66504C5.3495 4.57635 5.13119 4.54948 4.9196 4.58802C4.70801 4.62656 4.51319 4.72868 4.36111 4.88077C4.20903 5.03285 4.10692 5.22767 4.06839 5.43926C4.02986 5.65086 4.05673 5.86917 4.14544 6.0651L4.77044 7.37504C4.8198 7.48137 4.84648 7.59681 4.84878 7.71401C4.85108 7.83121 4.82894 7.94761 4.78379 8.05579C4.73864 8.16397 4.67145 8.26156 4.58651 8.34235C4.50157 8.42314 4.40074 8.48536 4.29044 8.52504L2.92544 9.01004C2.72187 9.08358 2.54592 9.2181 2.42155 9.39525C2.29719 9.57241 2.23047 9.78359 2.23047 10C2.23047 10.2165 2.29719 10.4277 2.42155 10.6048C2.54592 10.782 2.72187 10.9165 2.92544 10.99L4.29044 11.475C4.40223 11.5125 4.50447 11.574 4.58998 11.6552C4.67549 11.7364 4.7422 11.8353 4.78544 11.945C4.83006 12.0533 4.85177 12.1696 4.84919 12.2866C4.84661 12.4037 4.81979 12.5189 4.77044 12.625L4.14544 13.935C4.05299 14.131 4.02331 14.3507 4.06045 14.5641C4.09759 14.7776 4.19974 14.9743 4.35294 15.1275C4.50613 15.2807 4.7029 15.3829 4.91635 15.42C5.12979 15.4572 5.3495 15.4275 5.54544 15.335L6.85544 14.71C6.96145 14.6606 7.07658 14.6337 7.19353 14.6311C7.31048 14.6284 7.42671 14.6501 7.53483 14.6948C7.64295 14.7395 7.74061 14.8061 7.82163 14.8905C7.90264 14.9749 7.96523 15.0752 8.00544 15.185L8.49044 16.55C8.56283 16.7548 8.6969 16.932 8.8742 17.0574C9.0515 17.1827 9.2633 17.25 9.48044 17.25C9.69757 17.25 9.90937 17.1827 10.0867 17.0574C10.264 16.932 10.398 16.7548 10.4704 16.55L10.9554 15.185C10.9957 15.0752 11.0584 14.975 11.1394 14.8907C11.2204 14.8063 11.3181 14.7397 11.4262 14.6951C11.5343 14.6505 11.6504 14.6287 11.7674 14.6313C11.8843 14.6339 11.9994 14.6607 12.1054 14.71L13.4104 15.335C13.6066 15.429 13.8273 15.4593 14.0416 15.4216C14.2559 15.384 14.453 15.2803 14.6054 15.125C14.7608 14.9737 14.8643 14.7771 14.9011 14.5633C14.938 14.3496 14.9062 14.1297 14.8104 13.935L14.1904 12.625ZM12.1804 10C12.0687 13.5707 6.88871 13.5652 6.77544 9.99998C6.88923 6.43398 12.0692 6.4302 12.1804 10Z" fill="#4AA13E"/>
<path d="M9.47995 8.30005C9.03134 8.3035 8.60228 8.48413 8.28628 8.80257C7.97028 9.12101 7.79296 9.55145 7.79297 10.0001C7.79298 10.4487 7.97031 10.8791 8.28632 11.1976C8.60233 11.516 9.0314 11.6966 9.48001 11.7C9.92862 11.6966 10.3577 11.516 10.6737 11.1975C10.9897 10.8791 11.167 10.4486 11.167 10C11.167 9.5514 10.9897 9.12096 10.6736 8.80253C10.3576 8.4841 9.92856 8.30348 9.47995 8.30005Z" fill="#4AA13E"/>
<path d="M25.4548 18.45V5.555C25.4548 4.61216 25.0802 3.70793 24.4136 3.04124C23.7469 2.37454 22.8426 2 21.8998 2C20.9569 2 20.0527 2.37454 19.386 3.04124C18.7193 3.70793 18.3448 4.61216 18.3448 5.555V18.45C18.3506 18.6991 18.3058 18.9467 18.2129 19.178C18.1201 19.4092 17.9812 19.6191 17.8048 19.795C17.2204 20.3568 16.7568 21.0319 16.4421 21.7789C16.1275 22.526 15.9684 23.3294 15.9748 24.14C16.0385 29.2818 22.3461 31.9508 26.0298 28.3249C26.596 27.7678 27.0451 27.103 27.3506 26.3697C27.656 25.6364 27.8117 24.8494 27.8085 24.0551C27.8052 23.2607 27.643 22.475 27.3316 21.7443C27.0201 21.0135 26.5655 20.3524 25.9947 19.8C25.8186 19.6228 25.68 19.4119 25.5873 19.18C25.4945 18.948 25.4494 18.6998 25.4548 18.45ZM18.9498 23.695C18.9503 22.9997 19.1964 22.3269 19.6447 21.7954C20.093 21.2639 20.7146 20.9078 21.3998 20.79V6.585C21.4018 6.45373 21.4554 6.32853 21.549 6.23643C21.6425 6.14432 21.7685 6.0927 21.8998 6.0927C22.0311 6.0927 22.1571 6.14434 22.2506 6.23645C22.3442 6.32856 22.3978 6.45376 22.3998 6.58503V20.79C23.085 20.9078 23.7066 21.2639 24.1549 21.7954C24.6031 22.3269 24.8493 22.9997 24.8498 23.695C24.7253 27.5892 19.0763 27.5956 18.9498 23.695Z" fill="#4AA13E"/>
<path d="M23.8512 23.6951C23.8475 23.1803 23.6404 22.6879 23.2751 22.3252C22.9098 21.9626 22.4159 21.759 21.9012 21.759C21.3864 21.759 20.8925 21.9626 20.5272 22.3253C20.1619 22.688 19.9549 23.1804 19.9512 23.6951C19.9549 24.2099 20.1619 24.7023 20.5272 25.065C20.8925 25.4277 21.3864 25.6312 21.9012 25.6312C22.416 25.6312 22.9098 25.4277 23.2751 25.065C23.6404 24.7023 23.8475 24.2099 23.8512 23.6951Z" fill="#4AA13E"/>
<path d="M27.3224 7.06396H29.2714C29.404 7.06396 29.5311 7.01129 29.6249 6.91752C29.7187 6.82375 29.7714 6.69657 29.7714 6.56396C29.7714 6.43136 29.7187 6.30418 29.6249 6.21041C29.5311 6.11664 29.404 6.06396 29.2714 6.06396H27.3224C27.1915 6.06652 27.0668 6.12032 26.9751 6.21381C26.8834 6.3073 26.832 6.43302 26.832 6.56396C26.832 6.69491 26.8834 6.82063 26.9751 6.91412C27.0668 7.00761 27.1915 7.06141 27.3224 7.06396Z" fill="#4AA13E"/>
<path d="M29.2712 9.5H27.3223C27.1897 9.5 27.0625 9.55268 26.9687 9.64645C26.8749 9.74021 26.8223 9.86739 26.8223 10C26.8223 10.1326 26.8749 10.2598 26.9687 10.3536C27.0625 10.4473 27.1897 10.5 27.3223 10.5H29.2712C29.4022 10.4974 29.5269 10.4436 29.6185 10.3502C29.7102 10.2567 29.7616 10.1309 29.7616 10C29.7616 9.86905 29.7102 9.74333 29.6185 9.64984C29.5269 9.55635 29.4022 9.50255 29.2712 9.5Z" fill="#4AA13E"/>
<path d="M29.2712 12.936H27.3223C27.1897 12.936 27.0625 12.9887 26.9687 13.0825C26.8749 13.1762 26.8223 13.3034 26.8223 13.436C26.8223 13.5686 26.8749 13.6958 26.9687 13.7896C27.0625 13.8834 27.1897 13.936 27.3223 13.936H29.2712C29.4022 13.9335 29.5269 13.8797 29.6185 13.7862C29.7102 13.6927 29.7616 13.567 29.7616 13.436C29.7616 13.3051 29.7102 13.1794 29.6185 13.0859C29.5269 12.9924 29.4022 12.9386 29.2712 12.936Z" fill="#4AA13E"/>
<path d="M29.2712 16.3726H27.3223C27.1897 16.3726 27.0625 16.4252 26.9687 16.519C26.8749 16.6128 26.8223 16.74 26.8223 16.8726C26.8223 17.0052 26.8749 17.1323 26.9687 17.2261C27.0625 17.3199 27.1897 17.3726 27.3223 17.3726H29.2712C29.4022 17.37 29.5269 17.3162 29.6185 17.2227C29.7102 17.1292 29.7616 17.0035 29.7616 16.8726C29.7616 16.7416 29.7102 16.6159 29.6185 16.5224C29.5269 16.4289 29.4022 16.3751 29.2712 16.3726Z" fill="#4AA13E"/>
</svg>
