<svg width="32" height="32" viewBox="0 0 32 32" fill="none" xmlns="http://www.w3.org/2000/svg">
<g clip-path="url(#clip0_246_7515)">
<path d="M30.3964 0.276078L24.0158 6.65665L26.6525 9.29335C27.0193 9.66018 27.0193 10.2549 26.6525 10.6217C26.2857 10.9885 25.691 10.9885 25.3241 10.6217L22.6874 7.98496L20.008 10.6643L22.6447 13.301C23.0116 13.6678 23.0116 14.2625 22.6447 14.6294C22.278 14.9961 21.6832 14.9962 21.3164 14.6294L18.6796 11.9926L16.0003 14.6719L18.637 17.3086C19.0038 17.6755 19.0038 18.2702 18.637 18.637C18.2702 19.0038 17.6754 19.0038 17.3086 18.637L14.6718 16.0002L11.9925 18.6796L14.6292 21.3163C14.996 21.6831 14.996 22.2778 14.6292 22.6446C14.2624 23.0114 13.6677 23.0115 13.3008 22.6446L10.6641 20.0079L7.98474 22.6872L10.6214 25.3239C10.9883 25.6907 10.9883 26.2854 10.6214 26.6523C10.2547 27.019 9.65989 27.0191 9.29307 26.6523L6.65631 24.0155L0.275984 30.3965C-0.314025 30.9865 0.10453 32 0.940136 32H31.0605C31.5793 32 31.9998 31.5794 31.9998 31.0607V0.940293C31.9999 0.105876 30.9873 -0.314745 30.3964 0.276078ZM25.9257 24.9865C25.9257 25.5053 25.5052 25.9258 24.9864 25.9258H16.47C15.6361 25.9258 15.2146 24.9136 15.8059 24.3223L24.3223 15.8059C24.9123 15.2159 25.9257 15.6345 25.9257 16.4701V24.9865Z" fill="#4AA13E"/>
</g>
<defs>
<clipPath id="clip0_246_7515">
<rect width="32" height="32" fill="white"/>
</clipPath>
</defs>
</svg>
