<svg width="28" height="32" viewBox="0 0 28 32" fill="none" xmlns="http://www.w3.org/2000/svg">
<path d="M27.2177 27.1894C27.2177 27.1894 23.666 21.0852 23.0289 19.9904C23.7538 19.7693 24.5259 19.574 24.8467 19.02C25.3814 18.097 24.4297 16.5828 24.6796 15.5934C24.937 14.5751 26.4568 13.694 26.4568 12.659C26.4568 11.6505 24.8856 10.4725 24.628 9.46017C24.3763 8.47095 25.3252 6.9551 24.7888 6.03316C24.2524 5.11114 22.4657 5.1869 21.7302 4.47917C20.9734 3.75086 20.9758 1.96891 20.063 1.48083C19.1465 0.990942 17.657 1.98102 16.6395 1.74649C15.6335 1.51465 14.7347 0 13.6839 0C12.6176 0 10.9215 1.71813 10.6555 1.77996C9.63844 2.01639 8.14705 1.02873 7.23152 1.5207C6.31962 2.01042 6.32524 3.79254 5.56986 4.52206C4.83558 5.23109 3.04879 5.15862 2.51402 6.08168C1.97933 7.00456 2.9311 8.51843 2.68126 9.50833C2.43074 10.5007 0.858066 11.5063 0.858066 12.654C0.858066 13.6892 2.38162 14.5675 2.64062 15.5853C2.89235 16.5745 1.94344 18.0902 2.47986 19.0124C2.77189 19.5144 3.43448 19.7205 4.0962 19.9186C4.17343 19.9417 4.31949 20.0281 4.22056 20.1723C3.76785 20.9537 0.124134 27.2422 0.124134 27.2422C-0.165737 27.7424 0.0696536 28.1711 0.647061 28.1954L3.47339 28.3133C4.0508 28.3376 4.77513 28.7572 5.08334 29.246L6.5915 31.6392C6.8997 32.1281 7.38873 32.1189 7.67852 31.6188C7.67852 31.6188 11.8983 24.3335 11.9001 24.3314C11.9847 24.2325 12.0698 24.2528 12.1106 24.2874C12.5723 24.6805 13.2159 25.0727 13.7531 25.0727C14.2799 25.0727 14.7677 24.7035 15.2503 24.2918C15.2895 24.2583 15.3851 24.1897 15.455 24.3321C15.4561 24.3343 19.6713 31.5798 19.6713 31.5798C19.9618 32.0793 20.4509 32.0878 20.7582 31.5983L22.2621 29.2023C22.5695 28.7131 23.293 28.2919 23.8704 28.2667L26.6965 28.1436C27.2736 28.1182 27.5082 27.6889 27.2177 27.1894ZM18.3548 20.6361C15.2299 22.4541 11.4789 22.2593 8.61394 20.4522C4.41591 17.7632 3.03461 12.2006 5.55827 7.84486C8.11073 3.43885 13.7216 1.88416 18.1673 4.30544C18.1907 4.31815 18.2138 4.33129 18.2369 4.34427C18.2699 4.36251 18.3028 4.38102 18.3355 4.3997C19.7071 5.19044 20.8964 6.33808 21.748 7.80188C24.3508 12.2759 22.8287 18.0333 18.3548 20.6361Z" fill="#4AA13E"/>
<path d="M17.64 5.71644C17.627 5.70891 17.6139 5.70191 17.6009 5.69447C15.2261 4.32 12.1992 4.21952 9.6624 5.69542C5.89788 7.88554 4.61689 12.7299 6.80701 16.4943C7.47531 17.6431 8.3911 18.5601 9.44768 19.2182C9.53753 19.2751 9.62842 19.3311 9.72129 19.3848C13.4899 21.5681 18.3316 20.2784 20.5149 16.51C22.698 12.7414 21.4086 7.89973 17.64 5.71644ZM18.5828 11.8772L17.2632 13.1633C16.8545 13.5616 16.5991 14.3479 16.6957 14.9104L17.0072 16.7265C17.1037 17.2891 16.7694 17.532 16.2642 17.2664L14.6331 16.4089C14.1279 16.1433 13.3013 16.1433 12.7961 16.4089L11.1651 17.2664C10.6599 17.532 10.3255 17.2891 10.422 16.7265L10.7335 14.9104C10.83 14.3479 10.5746 13.5616 10.1659 13.1633L8.84641 11.8772C8.43763 11.4788 8.56544 11.0857 9.13022 11.0036L10.9537 10.7386C11.5185 10.6565 12.1873 10.1706 12.4399 9.65884L13.2554 8.00652C13.508 7.49475 13.9213 7.49475 14.1738 8.00652L14.9894 9.65884C15.242 10.1706 15.9107 10.6565 16.4756 10.7386L18.299 11.0036C18.8637 11.0857 18.9915 11.4788 18.5828 11.8772Z" fill="#4AA13E"/>
</svg>
