<svg width="29" height="29" viewBox="0 0 29 29" fill="none" xmlns="http://www.w3.org/2000/svg">
<path fill-rule="evenodd" clip-rule="evenodd" d="M12.5948 27.0574L26.7668 18.7761C27.1735 18.5374 27.5268 18.2254 27.8108 17.8601C27.8708 17.9094 27.9281 17.9614 27.9828 18.0174C28.4215 18.4548 28.6668 19.0481 28.6668 19.6668V26.3334C28.6668 27.6214 27.6228 28.6668 26.3335 28.6668H11.8281C12.2135 28.2001 12.4761 27.6468 12.5948 27.0574Z" fill="#4AA13E"/>
<path fill-rule="evenodd" clip-rule="evenodd" d="M12.667 24.7786L21.9083 8.67593C22.0937 8.35193 22.227 8.00393 22.307 7.64526C22.835 7.8266 23.283 8.1906 23.567 8.67593L26.931 14.4319C27.243 14.9666 27.331 15.6026 27.1737 16.2013C27.0163 16.7999 26.6283 17.3119 26.0937 17.6239L12.667 25.4706V24.7786Z" fill="#4AA13E"/>
<path fill-rule="evenodd" clip-rule="evenodd" d="M12.5 1.24136C13.048 1.13602 13.6187 1.22936 14.1067 1.50802L19.8893 4.82669C20.4253 5.13469 20.8173 5.64269 20.98 6.24002C21.1413 6.83736 21.0587 7.47469 20.7507 8.01202L12.6667 22.1V2.33336C12.6667 1.96002 12.6093 1.59202 12.5 1.24136Z" fill="#4AA13E"/>
<path fill-rule="evenodd" clip-rule="evenodd" d="M11.3333 2.33333V26.3333C11.3333 26.952 11.088 27.5453 10.6493 27.9827C10.212 28.4213 9.61867 28.6667 9 28.6667H2.33333C1.71467 28.6667 1.12133 28.4213 0.684 27.9827C0.245333 27.5453 0 26.952 0 26.3333V2.33333C0 1.71467 0.245333 1.12133 0.684 0.684C1.12133 0.245333 1.71467 0 2.33333 0H9C9.61867 0 10.212 0.245333 10.6493 0.684C11.088 1.12133 11.3333 1.71467 11.3333 2.33333ZM5.66667 20.3333C4.74667 20.3333 4 21.08 4 22C4 22.92 4.74667 23.6667 5.66667 23.6667C6.58667 23.6667 7.33333 22.92 7.33333 22C7.33333 21.08 6.58667 20.3333 5.66667 20.3333Z" fill="#4AA13E"/>
</svg>
