<svg width="32" height="32" viewBox="0 0 32 32" fill="none" xmlns="http://www.w3.org/2000/svg">
<path d="M30.6218 19.5067L27.6805 17.2067C27.7178 16.852 27.7498 16.4374 27.7498 15.9987C27.7498 15.56 27.7191 15.1454 27.6805 14.7907L30.6245 12.4894C31.1712 12.0574 31.3205 11.2907 30.9725 10.6521L27.9138 5.36C27.5871 4.76269 26.8711 4.456 26.1445 4.724L22.6738 6.11731C22.0085 5.63731 21.3111 5.232 20.5898 4.908L20.0618 1.22669C19.9751 0.528 19.3671 0 18.6485 0H12.5152C11.7965 0 11.1899 0.528 11.1045 1.216L10.5752 4.91069C9.87648 5.22538 9.18986 5.62537 8.49517 6.12L5.01517 4.72269C4.36311 4.47069 3.58311 4.75331 3.25911 5.348L0.196483 10.6467C-0.164829 11.2574 -0.0155168 12.0507 0.543171 12.4934L3.48448 14.7934C3.4378 15.2427 3.41517 15.6334 3.41517 16.0001C3.41517 16.3668 3.43786 16.7574 3.48448 17.2081L0.540483 19.5094C-0.00620425 19.9427 -0.154204 20.7094 0.193796 21.3467L3.25248 26.6387C3.57917 27.2347 4.28848 27.544 5.0218 27.2747L8.49248 25.8814C9.15648 26.3601 9.8538 26.7654 10.5752 27.0907L11.1032 30.7707C11.1898 31.472 11.7965 32 12.5165 32H18.6498C19.3685 32 19.9765 31.472 20.0618 30.784L20.5911 27.0907C21.2898 26.7747 21.9751 26.376 22.6711 25.88L26.1511 27.2773C26.3191 27.3426 26.4938 27.376 26.6738 27.376C27.1911 27.376 27.6671 27.0933 27.9071 26.6533L30.9791 21.3333C31.3205 20.7093 31.1711 19.9427 30.6218 19.5067ZM15.5818 21.3333C12.6405 21.3333 10.2485 18.9413 10.2485 16C10.2485 13.0587 12.6405 10.6667 15.5818 10.6667C18.5231 10.6667 20.9151 13.0587 20.9151 16C20.9151 18.9413 18.5231 21.3333 15.5818 21.3333Z" fill="#4AA13E"/>
</svg>
