<svg width="32" height="22" viewBox="0 0 32 22" fill="none" xmlns="http://www.w3.org/2000/svg">
<path d="M22.1195 5.62006C22.5669 5.62006 22.7906 5.32271 22.7906 4.7281C22.7906 4.13216 22.568 3.83423 22.1231 3.83423C21.8999 3.83423 21.7317 3.90934 21.6182 4.05955C21.5049 4.20977 21.4482 4.43259 21.4482 4.7281C21.4482 5.02361 21.5043 5.2461 21.6165 5.39565C21.7286 5.54528 21.8963 5.62006 22.1195 5.62006Z" fill="#4AA13E"/>
<path d="M25.0608 4.49447C25.1453 4.43556 25.1876 4.34267 25.1876 4.21607C25.1876 4.09056 25.1443 4.00134 25.0582 3.94827C24.972 3.89511 24.8383 3.86865 24.6575 3.86865H24.4873V4.58327H24.6683C24.8457 4.58335 24.9765 4.55373 25.0608 4.49447Z" fill="#4AA13E"/>
<path d="M32 2.35207V0H0V2.35215H0.788807V19.346H0V21.6981H32V19.346H31.2113V2.35207H32ZM26.3729 3.40918H27.8962V3.86876H26.9337V4.44943H27.8292V4.90893H26.9337V5.59108H27.8962V6.05417H26.3729V3.40918ZM23.9269 3.40918H24.6975C25.0569 3.40918 25.3229 3.47469 25.4953 3.60538C25.6678 3.7364 25.7542 3.93502 25.7542 4.20166C25.7542 4.35713 25.7113 4.4955 25.6257 4.61692C25.5401 4.73801 25.4188 4.83315 25.2621 4.90175C25.6602 5.49636 25.9195 5.8805 26.04 6.05417H25.4177L24.7862 5.0392H24.4877V6.05417H23.927V3.40918H23.9269ZM21.187 3.71579C21.4045 3.4837 21.7167 3.36762 22.1232 3.36762C22.5296 3.36762 22.8404 3.48454 23.0558 3.71854C23.2711 3.95263 23.3787 4.28903 23.3787 4.72817C23.3787 5.16597 23.2701 5.50237 23.0531 5.73771C22.8359 5.9728 22.5248 6.09055 22.1196 6.09055C21.7143 6.09055 21.4032 5.97288 21.186 5.73771C20.9689 5.50245 20.8602 5.1648 20.8602 4.72441C20.8602 4.28436 20.9692 3.94804 21.187 3.71579ZM18.5736 3.40918H20.571V3.87585H19.8527V6.05408H19.2918V3.87585H18.5736V3.40918ZM10.0553 19.3459H4.00454V7.59356H10.0553V19.3459ZM12.5663 7.75988H16.4442V15.0207H12.5663V7.75988ZM13.6983 18.8131C13.197 18.8131 12.7907 18.4068 12.7907 17.9055C12.7907 17.4043 13.197 16.998 13.6983 16.998C14.1996 16.998 14.6059 17.4043 14.6059 17.9055C14.6059 18.4068 14.1995 18.8131 13.6983 18.8131ZM16.9253 18.8131C16.424 18.8131 16.0177 18.4068 16.0177 17.9055C16.0177 17.4043 16.424 16.998 16.9253 16.998C17.4265 16.998 17.8329 17.4043 17.8329 17.9055C17.8329 18.4068 17.4265 18.8131 16.9253 18.8131ZM18.095 5.88409C17.9232 6.02162 17.6841 6.09047 17.3777 6.09047C17.0954 6.09047 16.8457 6.03723 16.6286 5.93124V5.41015C16.8072 5.48985 16.9581 5.54593 17.0819 5.5784C17.2055 5.61103 17.3186 5.6273 17.421 5.6273C17.5441 5.6273 17.6383 5.60377 17.7043 5.5567C17.77 5.50963 17.8029 5.43978 17.8029 5.34689C17.8029 5.29507 17.7884 5.24892 17.7594 5.20844C17.7305 5.16814 17.6881 5.12916 17.632 5.09186C17.5758 5.05447 17.4616 4.99472 17.2892 4.91277C17.1274 4.83666 17.0062 4.7638 16.9255 4.69378C16.8447 4.62385 16.7802 4.54248 16.732 4.44951C16.6837 4.35671 16.6596 4.24822 16.6596 4.12396C16.6596 3.89004 16.7389 3.70602 16.8976 3.57216C17.0562 3.4383 17.2754 3.37137 17.5552 3.37137C17.6927 3.37137 17.8238 3.38756 17.9487 3.42028C18.0735 3.45282 18.2041 3.49864 18.3404 3.55764L18.1594 3.99369C18.0184 3.93586 17.9017 3.89538 17.8095 3.87251C17.7171 3.84965 17.6265 3.83821 17.5372 3.83821C17.4309 3.83821 17.3496 3.86292 17.2928 3.9124C17.2362 3.96189 17.2078 4.02632 17.2078 4.10585C17.2078 4.15542 17.2193 4.19857 17.2422 4.23529C17.265 4.27209 17.3015 4.30764 17.3517 4.34203C17.4017 4.37641 17.5202 4.43816 17.7072 4.52746C17.9544 4.64571 18.1238 4.76422 18.2156 4.88306C18.3073 5.0019 18.3531 5.14736 18.3531 5.31986C18.3529 5.55845 18.267 5.74672 18.095 5.88409ZM20.1523 18.8131C19.6511 18.8131 19.2446 18.4068 19.2446 17.9055C19.2446 17.4043 19.6511 16.998 20.1523 16.998C20.6535 16.998 21.0599 17.4043 21.0599 17.9055C21.0599 18.4068 20.6534 18.8131 20.1523 18.8131ZM22.2199 15.0207H18.3418V7.75988H22.2199V15.0207ZM23.3793 18.8131C22.8781 18.8131 22.4717 18.4068 22.4717 17.9055C22.4717 17.4043 22.8781 16.998 23.3793 16.998C23.8807 16.998 24.2869 17.4043 24.2869 17.9055C24.2869 18.4068 23.8806 18.8131 23.3793 18.8131ZM26.6064 18.8131C26.1051 18.8131 25.6987 18.4068 25.6987 17.9055C25.6987 17.4043 26.1051 16.998 26.6064 16.998C27.1076 16.998 27.5139 17.4043 27.5139 17.9055C27.5139 18.4068 27.1075 18.8131 26.6064 18.8131ZM27.9955 15.0207H24.1175V7.75988H27.9955V15.0207Z" fill="#4AA13E"/>
</svg>
