<svg width="22" height="22" viewBox="0 0 22 22" fill="none" xmlns="http://www.w3.org/2000/svg">
<g clip-path="url(#clip0_131_210)">
<path d="M10.9997 20.1668C16.0623 20.1668 20.1663 16.0628 20.1663 11.0002C20.1663 5.93755 16.0623 1.8335 10.9997 1.8335C5.93706 1.8335 1.83301 5.93755 1.83301 11.0002C1.83301 16.0628 5.93706 20.1668 10.9997 20.1668Z" stroke="#53A54A" stroke-width="1.83333" stroke-linecap="round" stroke-linejoin="round"/>
<path d="M11 16.5C14.0376 16.5 16.5 14.0376 16.5 11C16.5 7.96243 14.0376 5.5 11 5.5C7.96243 5.5 5.5 7.96243 5.5 11C5.5 14.0376 7.96243 16.5 11 16.5Z" stroke="#53A54A" stroke-width="1.83333" stroke-linecap="round" stroke-linejoin="round"/>
<path d="M11.0003 12.8332C12.0128 12.8332 12.8337 12.0124 12.8337 10.9998C12.8337 9.98732 12.0128 9.1665 11.0003 9.1665C9.9878 9.1665 9.16699 9.98732 9.16699 10.9998C9.16699 12.0124 9.9878 12.8332 11.0003 12.8332Z" stroke="#53A54A" stroke-width="1.83333" stroke-linecap="round" stroke-linejoin="round"/>
</g>
<defs>
<clipPath id="clip0_131_210">
<rect width="22" height="22" fill="white"/>
</clipPath>
</defs>
</svg>
