<svg width="24" height="24" viewBox="0 0 24 24" fill="none" xmlns="http://www.w3.org/2000/svg">
<path d="M12.3663 13.4565C11.8506 15.412 13.5628 17.6492 8.20102 22.5431C7.67002 23.0278 7.02183 22.336 7.53952 21.8447C9.43168 20.049 11.4078 17.9487 11.2785 15.3515C11.2273 14.3233 11.2345 12.3272 12.2511 12.2292C13.9665 12.0638 15.305 18.4521 9.69347 23.3841C9.38935 23.6514 9.10505 23.6579 8.90447 23.4215C8.70394 23.1853 8.75747 22.9179 9.06952 22.6472C10.5863 21.3313 11.7353 19.7619 12.3504 17.8349C13.0748 15.5649 12.7065 13.92 12.3663 13.4565Z" fill="#5DC94E"/>
<path d="M17.8249 11.7992C17.9141 12.1536 17.7744 12.4109 17.4779 12.4776C17.1725 12.5463 16.9572 12.3851 16.8622 11.979C15.7059 7.03677 10.2068 5.23129 8.58549 8.77134C7.99773 10.0547 8.19413 10.8274 7.49312 10.7013C7.21257 10.6509 7.07204 10.4414 7.13171 10.1768C7.4566 8.73538 7.91991 7.36931 9.28866 6.54534C12.0312 4.89435 16.5583 6.7693 17.8249 11.7992Z" fill="#5DC94E"/>
<path d="M16.7831 15.4118C16.7032 19.0983 15.6001 21.3368 13.7739 23.2696C13.2847 23.7873 12.5161 23.1662 13.0989 22.5802C14.0332 21.6408 14.746 20.5538 15.1556 19.2978C15.9143 16.9712 16.1494 14.6183 15.2509 12.2695C14.3606 9.94197 13.3013 9.90138 13.9096 9.32219C14.4279 8.82874 14.9734 9.74871 15.3569 10.3521C16.3388 11.8968 16.8096 13.5827 16.7831 15.4118Z" fill="#5DC94E"/>
<path d="M13.3856 8.63066C13.3938 9.05169 13.0898 9.27618 12.7436 9.15791C12.2606 8.99291 11.775 8.8933 11.2701 9.02427C7.96317 9.88208 11.0805 14.8196 5.89092 19.5502C5.42166 19.9779 4.68 19.3793 5.25577 18.8263C6.09178 18.0235 6.84174 17.1575 7.37522 16.1158C7.95685 14.9801 8.16366 13.7485 8.3506 12.508C8.48288 11.6304 8.55277 10.7381 8.91155 9.90936C9.60797 8.30057 11.4046 7.57025 13.0207 8.23569C13.2353 8.32405 13.3778 8.46238 13.3856 8.63066Z" fill="#5DC94E"/>
<path d="M3.9101 13.6041C4.93278 12.5178 5.00028 11.1153 5.26278 9.76998C5.71179 7.4686 6.52709 5.62285 8.73631 4.60332C9.09874 4.43607 9.38323 4.50812 9.50853 4.79115C9.62749 5.05979 9.51368 5.29745 9.15785 5.46306C7.44851 6.25876 6.69293 7.72576 6.30959 9.46646C6.11285 10.3597 6.03162 11.2749 5.7844 12.1579C5.58195 12.881 5.24913 13.5329 4.74134 14.0911C4.16004 14.7301 3.58376 13.9507 3.9101 13.6041Z" fill="#5DC94E"/>
<path d="M15.222 15.8539C15.2038 16.2567 15.0145 16.4697 14.7061 16.4482C13.6654 16.3757 15.0479 14.4014 13.1385 11.7032C12.7061 11.0921 12.0337 10.7776 11.4821 11.3887C10.408 12.5786 11.2106 14.2431 10.2528 14.1905C9.9694 14.1749 9.80041 13.9967 9.8089 13.728C9.94666 9.37152 13.4293 8.61956 14.8997 13.069C15.1825 13.9252 15.2627 14.9541 15.222 15.8539Z" fill="#5DC94E"/>
<path d="M15.471 2.88535C15.8261 3.04815 15.9453 3.2851 15.8301 3.55735C15.7065 3.84962 15.4333 3.92485 15.0695 3.76314C12.0262 2.41042 9.52175 2.81439 7.16122 4.61551C6.91602 4.80264 6.66692 4.81548 6.46124 4.57389C6.25227 4.32845 6.31231 4.0765 6.54299 3.87826C8.73706 1.99267 11.9939 1.29123 15.471 2.88535Z" fill="#5DC94E"/>
<path d="M19.8717 17.5713C19.8203 17.8808 19.6556 18.0481 19.3396 18.0261C19.054 18.0063 18.893 17.7702 18.935 17.424C19.3255 14.2063 19.2471 12.914 17.9585 9.40831C17.8255 9.04644 17.8907 8.79078 18.1814 8.68405C18.5947 8.53227 18.7998 8.82903 18.9391 9.25096C19.838 11.9731 20.522 13.6616 19.8717 17.5713Z" fill="#5DC94E"/>
<path d="M10.8326 4.97483C10.3771 5.04158 10.1136 4.90813 10.0731 4.58436C9.89776 3.17999 15.8712 4.08674 17.9665 7.42827C18.1305 7.68978 18.1136 7.94193 17.8598 8.12525C17.1278 8.65368 17.1738 7.23327 15.023 6.02638C13.8185 5.35058 12.1995 4.77453 10.8326 4.97483Z" fill="#5DC94E"/>
<path d="M20.6534 10.4215C20.3664 10.4813 20.1616 10.3595 20.0823 10.0692C18.7283 5.11317 16.4052 4.91395 16.2918 4.27767C16.2189 3.86854 16.6184 3.49734 17.109 3.82448C19.2762 5.26945 20.3345 7.21504 20.9841 9.70228C21.0708 10.0343 20.9977 10.3498 20.6534 10.4215Z" fill="#5DC94E"/>
<path d="M17.4944 20.4417C17.389 20.7214 17.182 20.8699 16.8736 20.7753C16.049 20.5226 17.1021 19.4771 17.3992 17.0996C17.5775 15.6733 17.233 13.9199 17.224 13.8111C17.1615 13.051 18.0903 12.9993 18.1863 13.6723C18.5113 15.9494 18.6914 17.267 17.4944 20.4417Z" fill="#5DC94E"/>
<path d="M10.896 23.0536C12.4138 21.5672 13.4087 19.7185 13.9832 17.6378C14.0826 17.2777 14.3196 17.1001 14.5976 17.2012C14.9058 17.3132 14.9966 17.5442 14.9125 17.8643C14.324 20.1034 13.2579 22.0712 11.607 23.7084C11.0542 24.2567 10.3945 23.5448 10.896 23.0536Z" fill="#5DC94E"/>
<path d="M13.1491 0.116449C15.4095 0.43698 17.4632 1.35414 19.1304 3.06479C19.3491 3.28918 19.3626 3.538 19.1647 3.7712C18.3977 4.67532 17.8585 1.73453 12.9659 1.07481C12.6599 1.03356 12.4798 0.873621 12.4845 0.559089C12.4887 0.274277 12.7359 0.0952144 13.1491 0.116449Z" fill="#5DC94E"/>
<path d="M10.5401 15.4913C10.2878 17.8652 8.73783 19.3256 7.03453 21.2011C6.81867 21.4389 6.57375 21.5065 6.30797 21.2943C5.36719 20.5431 9.14953 18.7555 9.57258 15.4738C9.61964 15.1086 9.76959 14.8739 10.1348 14.9204C10.4537 14.9611 10.5679 15.1835 10.5401 15.4913Z" fill="#5DC94E"/>
<path d="M2.98969 11.0833C3.44119 9.24415 3.67018 7.26148 4.87843 5.61616C5.2314 5.13551 5.60227 4.67379 6.01154 5.09458C6.20546 5.29394 6.21282 5.53826 6.02701 5.73851C4.88846 6.96518 4.55888 8.52658 4.20713 10.0808C4.11048 10.5078 4.01893 10.9368 3.89921 11.3574C3.82444 11.6201 3.61337 11.7478 3.34496 11.6827C3.08255 11.6189 2.95234 11.4278 2.98969 11.0833Z" fill="#5DC94E"/>
<path d="M4.0717 17.0378C3.98643 16.8323 4.04217 16.6395 4.2112 16.4941C4.40086 16.3309 4.60903 16.1887 4.79315 16.0199C6.19706 14.7332 6.43668 12.7533 6.71287 11.8609C6.91411 11.2107 7.79076 11.5062 7.65656 12.0774C7.37587 13.2721 7.07545 14.4629 6.43129 15.5283C5.89532 16.4148 4.46676 17.99 4.0717 17.0378Z" fill="#5DC94E"/>
<path d="M11.9435 0.589765C11.9044 0.928484 11.6728 1.04478 11.3457 1.05233C9.711 1.09016 8.07103 1.71439 6.68236 2.7148C6.34429 2.95836 6.08648 2.95105 5.89181 2.70097C5.69836 2.45248 5.76806 2.18347 6.10106 1.94445C7.67325 0.815984 9.40406 0.133859 11.3591 0.0937338C11.733 0.0860932 11.9497 0.270921 11.9435 0.589765Z" fill="#5DC94E"/>
</svg>
