<svg width="24" height="24" viewBox="0 0 24 24" fill="none" xmlns="http://www.w3.org/2000/svg">
<path d="M8.18278 2.64318L4.30978 0.108602C4.10513 -0.0252735 3.8445 -0.0361016 3.62958 0.0801484C3.4147 0.196398 3.28125 0.420273 3.28125 0.664492V19.8656C3.29564 20.3305 3.96998 20.3301 3.98423 19.8656V0.735836L7.78041 3.22012V20.7798L3.98423 23.2641V21.5267C3.96984 21.0619 3.2955 21.0622 3.28125 21.5267V23.3354C3.28125 23.5797 3.4147 23.8036 3.62958 23.9198C3.72867 23.9734 3.83738 24 3.94584 23.9999C4.07283 23.9999 4.19948 23.9635 4.30978 23.8913L8.18273 21.3568C8.37098 21.2336 8.48339 21.0258 8.48339 20.8009V3.19907C8.48339 2.97416 8.37098 2.76632 8.18278 2.64318Z" fill="#5DC94E"/>
<path d="M5.24795 6.2898C5.44211 6.2898 5.59947 6.1324 5.59947 5.93824V5.56188C5.58508 5.09702 4.91073 5.0974 4.89648 5.56188V5.93824C4.89644 6.1324 5.0538 6.2898 5.24795 6.2898Z" fill="#5DC94E"/>
<path d="M4.89648 9.06324C4.91088 9.5281 5.58522 9.52773 5.59947 9.06324V8.68688C5.58508 8.22202 4.91073 8.2224 4.89648 8.68688V9.06324Z" fill="#5DC94E"/>
<path d="M4.89648 12.1882C4.91088 12.6531 5.58522 12.6527 5.59947 12.1882V11.8119C5.58508 11.347 4.91073 11.3474 4.89648 11.8119V12.1882Z" fill="#5DC94E"/>
<path d="M4.89648 15.313C4.91088 15.7779 5.58522 15.7775 5.59947 15.313V14.9366C5.58508 14.4718 4.91073 14.4722 4.89648 14.9366V15.313Z" fill="#5DC94E"/>
<path d="M4.89648 18.438C4.91088 18.9029 5.58522 18.9025 5.59947 18.438V18.0616C5.58508 17.5968 4.91073 17.5972 4.89648 18.0616V18.438Z" fill="#5DC94E"/>
<path d="M6.8212 4.90455C7.01535 4.90455 7.17271 4.74714 7.17271 4.55299V4.13439C7.15832 3.66953 6.48398 3.66991 6.46973 4.13439V4.55299C6.46968 4.74714 6.62704 4.90455 6.8212 4.90455Z" fill="#5DC94E"/>
<path d="M6.46973 7.61549C6.48412 8.08035 7.15846 8.07997 7.17271 7.61549V7.19689C7.15832 6.73203 6.48398 6.73241 6.46973 7.19689V7.61549Z" fill="#5DC94E"/>
<path d="M6.46973 10.678C6.48412 11.1428 7.15846 11.1425 7.17271 10.678V10.2594C7.15832 9.79453 6.48398 9.79491 6.46973 10.2594V10.678Z" fill="#5DC94E"/>
<path d="M6.46973 13.7405C6.48412 14.2053 7.15846 14.205 7.17271 13.7405V13.3219C7.15832 12.857 6.48398 12.8574 6.46973 13.3219V13.7405Z" fill="#5DC94E"/>
<path d="M6.46973 16.803C6.48412 17.2678 7.15846 17.2675 7.17271 16.803V16.3844C7.15832 15.9195 6.48398 15.9199 6.46973 16.3844V16.803Z" fill="#5DC94E"/>
<path d="M6.46973 19.8657C6.48412 20.3306 7.15846 20.3302 7.17271 19.8657V19.4471C7.15832 18.9823 6.48398 18.9827 6.46973 19.4471V19.8657Z" fill="#5DC94E"/>
<path d="M20.2874 16.5322L18.7872 15.0317C18.6499 14.8944 18.4274 14.8944 18.2901 15.0317C18.1528 15.1689 18.1528 15.3916 18.2901 15.5289L19.7903 17.0294C20.0697 17.3088 20.086 17.7628 19.8269 18.0412C19.6927 18.185 19.511 18.2661 19.3151 18.2695C19.1207 18.2743 18.935 18.1985 18.7965 18.0599C18.68 17.9435 18.6089 17.7952 18.5908 17.6322C18.5511 17.262 18.3754 16.9043 18.0962 16.625L16.6894 15.2179C16.4543 14.9827 16.1575 14.8241 15.8312 14.7593L15.6013 14.7136C15.412 14.676 15.2398 14.584 15.1033 14.4475L14.9204 14.2646L15.9733 13.2115L17.1346 14.3732C17.2719 14.5105 17.4944 14.5105 17.6318 14.3732C17.769 14.2359 17.769 14.0133 17.6318 13.876L16.2218 12.4657C16.2212 12.4651 16.2205 12.4646 16.2199 12.464L10.9678 7.2107C10.8235 7.06642 10.614 7.01748 10.4206 7.08311C10.2274 7.14868 10.0908 7.31514 10.0642 7.5175L9.91271 8.66809C9.79744 9.54357 10.1014 10.439 10.7256 11.0633L14.1746 14.5132C14.1751 14.5136 14.1756 14.514 14.1761 14.5145L14.6062 14.9447C14.8414 15.18 15.1381 15.3385 15.4643 15.4033L15.6943 15.4489C15.8836 15.4865 16.0558 15.5785 16.1922 15.715L17.599 17.1221C17.7651 17.2883 17.8691 17.4961 17.8919 17.7084C17.9588 18.4103 18.5961 18.9864 19.3018 18.9727C19.3103 18.9727 19.3187 18.9727 19.3273 18.9725C19.7155 18.9658 20.0754 18.8054 20.3411 18.5206C20.8641 17.9588 20.8404 17.0854 20.2874 16.5322ZM10.7611 7.60928C10.7611 7.60947 10.7611 7.60961 10.7611 7.60979L10.7611 7.60928ZM10.6097 8.75992L10.7159 7.95315L15.476 12.7144L14.4232 13.7674L11.2227 10.5662C10.752 10.0953 10.5228 9.42011 10.6097 8.75992Z" fill="#5DC94E"/>
<path d="M13.6516 7.97244C13.5343 8.12709 13.5644 8.34763 13.719 8.46505C13.8723 8.58177 14.0935 8.55313 14.2116 8.3976C15.2694 7.00396 16.5148 5.87966 17.9131 5.05593C18.0804 4.9574 18.1361 4.74191 18.0376 4.57457C17.9391 4.40723 17.7235 4.35154 17.5564 4.45007C16.0788 5.32049 14.7651 6.50559 13.6516 7.97244Z" fill="#5DC94E"/>
<path d="M12.8831 7.20429C13.0364 7.32101 13.2576 7.29237 13.3756 7.13684C14.4335 5.7432 15.6788 4.6189 17.0772 3.79517C17.2445 3.69663 17.3002 3.48115 17.2017 3.31381C17.1032 3.14646 16.8876 3.09082 16.7205 3.18931C15.2429 4.05968 13.9291 5.24478 12.8157 6.71164C12.6983 6.86632 12.7285 7.08687 12.8831 7.20429Z" fill="#5DC94E"/>
<path d="M12.4551 13.6333C12.4629 13.4393 12.3119 13.2757 12.1179 13.2679C11.9243 13.2598 11.7605 13.4111 11.7527 13.6051C11.6343 16.5631 12.1278 18.7614 12.1489 18.8535C12.1913 19.0441 12.3855 19.1614 12.5698 19.1178C12.759 19.0746 12.8774 18.8861 12.8342 18.6969C12.8293 18.6752 12.3406 16.4921 12.4551 13.6333Z" fill="#5DC94E"/>
<path d="M10.96 13.5453C10.9678 13.3513 10.8168 13.1877 10.6228 13.1799C10.4305 13.1729 10.2654 13.3232 10.2576 13.5171C10.1392 16.4751 10.6327 18.6734 10.6538 18.7655C10.6962 18.9562 10.8905 19.0736 11.0748 19.0299C11.264 18.9866 11.3823 18.7981 11.3391 18.6087C11.3341 18.5871 10.8453 16.4106 10.96 13.5453Z" fill="#5DC94E"/>
</svg>
