<svg width="24" height="24" viewBox="0 0 24 24" fill="none" xmlns="http://www.w3.org/2000/svg">
<g clip-path="url(#clip0_43_320)">
<path d="M23.9119 7.44177C23.7358 6.78452 23.3143 6.23512 22.725 5.89491L19.7431 4.17332C19.519 4.04395 19.2323 4.12068 19.1028 4.34487C18.9733 4.56906 19.0502 4.85569 19.2744 4.98516L22.2562 6.70675C22.6287 6.92181 22.8951 7.26895 23.0064 7.68434C23.1177 8.09977 23.0606 8.53363 22.8455 8.90608L20.4791 13.0048V9.6628C20.4791 8.84135 19.8108 8.17303 18.9894 8.17303C18.7943 8.17303 18.608 8.21072 18.4371 8.27915V7.00637C18.4371 6.18492 17.7688 5.5166 16.9473 5.5166C16.7437 5.5166 16.5495 5.55762 16.3726 5.63191C16.25 4.93308 15.6386 4.40037 14.9052 4.40037C14.1718 4.40037 13.5605 4.93308 13.4378 5.63191C13.2609 5.55766 13.0667 5.5166 12.8631 5.5166C12.0417 5.5166 11.3734 6.18492 11.3734 7.00637L11.3733 12.6787L10.853 11.8666C10.444 11.2279 9.65416 10.9444 8.93241 11.1774C8.0699 11.4557 7.5894 12.3562 7.83849 13.2275L7.87748 13.3639C8.08218 14.08 8.36131 14.7705 8.70657 15.4245L5.47712 13.56C4.70826 13.1161 4.4439 12.1294 4.88778 11.3606L10.4401 1.74384C10.6552 1.37139 11.0024 1.10496 11.4178 0.993639C11.8331 0.882269 12.267 0.939454 12.6395 1.15451L15.6216 2.87615C15.8458 3.00566 16.1324 2.92884 16.2618 2.7046C16.3913 2.4804 16.3145 2.19378 16.0903 2.06431L13.1082 0.342667C12.5189 0.00246304 11.8323 -0.0880018 11.1751 0.0881468C10.5178 0.264249 9.96844 0.685824 9.62824 1.27511L9.33205 1.78809C8.18675 1.45731 7.00255 1.27713 5.80612 1.25303C5.80289 1.25299 5.7997 1.25294 5.79651 1.25294C5.54204 1.25294 5.33322 1.45665 5.32806 1.71225C5.32286 1.97103 5.52844 2.1851 5.78728 2.19031C6.8242 2.21117 7.85114 2.35792 8.84818 2.62623L5.74378 8.00317C5.07012 7.77157 4.36721 7.64745 3.64898 7.63465C3.38958 7.62945 3.17659 7.83611 3.17195 8.0949C3.16731 8.35378 3.37341 8.56728 3.63224 8.57192C4.19022 8.58191 4.73732 8.66965 5.26483 8.83272L4.07604 10.8918C3.37369 12.1083 3.79199 13.6695 5.00848 14.3718L9.85632 17.1707C10.4157 17.8645 11.0608 18.4904 11.7786 19.0286V23.5312C11.7786 23.79 11.9884 23.9999 12.2473 23.9999C12.5062 23.9999 12.716 23.79 12.716 23.5312V18.791C12.716 18.6397 12.643 18.4977 12.5199 18.4097C10.7167 17.1209 9.38811 15.2374 8.7789 13.1062L8.7399 12.9699C8.6305 12.5872 8.84152 12.1917 9.22025 12.0696C9.53712 11.9674 9.88407 12.0918 10.0637 12.3722L11.4474 14.5322C11.5596 14.7075 11.774 14.7877 11.9738 14.7293C12.1735 14.6708 12.3108 14.4876 12.3108 14.2794V12.338C12.3108 12.3349 12.3109 12.3318 12.3109 12.3287V7.00641C12.3109 6.70188 12.5586 6.45411 12.8632 6.45411C13.1677 6.45411 13.4155 6.70188 13.4155 7.00641V11.4084C13.4155 11.6672 13.6253 11.8771 13.8842 11.8771C14.1431 11.8771 14.3529 11.6672 14.3529 11.4084V5.89013C14.3529 5.5856 14.6007 5.33783 14.9052 5.33783C15.2098 5.33783 15.4575 5.5856 15.4575 5.89013V11.4084C15.4575 11.6672 15.6674 11.8771 15.9263 11.8771C16.1852 11.8771 16.395 11.6672 16.395 11.4084V7.00641C16.395 6.70188 16.6428 6.45411 16.9473 6.45411C17.2518 6.45411 17.4996 6.70188 17.4996 7.00641V11.4084C17.4996 11.6672 17.7095 11.8771 17.9683 11.8771C18.2272 11.8771 18.4371 11.6672 18.4371 11.4084V9.66289C18.4371 9.35836 18.6848 9.11059 18.9894 9.11059C19.2939 9.11059 19.5417 9.35836 19.5417 9.66289V13.5051C19.5417 15.3462 18.794 17.1477 17.4902 18.4477C17.4021 18.5356 17.3525 18.6551 17.3525 18.7796V23.5313C17.3525 23.7901 17.5623 24 17.8212 24C18.0801 24 18.2899 23.7901 18.2899 23.5313V18.9708C19.3087 17.9044 19.9962 16.602 20.3007 15.1889L23.6574 9.3749C23.9977 8.78557 24.0881 8.09902 23.9119 7.44177Z" fill="#5DC94E"/>
<path d="M0.46901 3.1932C0.52882 3.1932 0.589662 3.18167 0.648347 3.1573C1.59115 2.76647 2.58233 2.48978 3.59436 2.33487C3.85029 2.29573 4.02597 2.05653 3.98678 1.80065C3.94764 1.54473 3.70854 1.36933 3.45257 1.40823C2.36601 1.57449 1.30176 1.87162 0.289346 2.29137C0.0502004 2.3905 -0.0632791 2.66471 0.0358572 2.90386C0.11062 3.08432 0.285081 3.1932 0.46901 3.1932Z" fill="#5DC94E"/>
<path d="M0.469063 6.24972C0.528498 6.24972 0.588917 6.23833 0.647274 6.21428C2.11018 5.61225 3.71666 5.39649 5.29304 5.59031C5.55005 5.62232 5.7839 5.43929 5.81549 5.18233C5.84708 4.92542 5.66442 4.69147 5.40746 4.65988C3.67152 4.44628 1.90202 4.68416 0.290477 5.34741C0.0510969 5.44594 -0.0631326 5.71982 0.0353944 5.95925C0.109922 6.14027 0.284712 6.24972 0.469063 6.24972Z" fill="#5DC94E"/>
<path d="M1.16536 8.05421C0.848827 8.17087 0.538481 8.31248 0.2429 8.47508C0.0160813 8.59986 -0.0666495 8.88484 0.0581263 9.11166C0.143482 9.26686 0.303835 9.3546 0.469249 9.3546C0.545605 9.3546 0.623133 9.33586 0.694755 9.29648C0.949416 9.15643 1.21683 9.03442 1.48958 8.93387C1.73248 8.84435 1.85683 8.57487 1.76726 8.33193C1.67773 8.08908 1.40821 7.96463 1.16536 8.05421Z" fill="#5DC94E"/>
<path d="M17.6826 3.99363C17.8059 3.99363 17.9264 3.94348 18.014 3.85629C18.1012 3.7691 18.1514 3.64816 18.1514 3.52488C18.1514 3.40113 18.1012 3.28019 18.014 3.19301C17.9264 3.10587 17.8059 3.05566 17.6826 3.05566C17.5593 3.05566 17.4384 3.10582 17.3512 3.19301C17.2636 3.28066 17.2139 3.40113 17.2139 3.52488C17.2139 3.64816 17.2636 3.76863 17.3512 3.85629C17.4384 3.94348 17.5588 3.99363 17.6826 3.99363Z" fill="#5DC94E"/>
</g>
<defs>
<clipPath id="clip0_43_320">
<rect width="24" height="24" fill="white"/>
</clipPath>
</defs>
</svg>
