<svg width="24" height="24" viewBox="0 0 24 24" fill="none" xmlns="http://www.w3.org/2000/svg">
<path d="M20.7372 8.97956C20.7372 8.97956 19.7839 8.02481 17.9387 7.45781C13.9329 6.22692 9.88071 8.1105 4.15723 5.73047" stroke="#5DC94E" stroke-miterlimit="10" stroke-linecap="round" stroke-linejoin="round"/>
<path d="M18.578 8.96665C17.3397 9.54457 16.1189 10.1895 15.0415 10.5013L15.0339 8.92155L13.4528 10.8854C5.65095 12.384 2.5085 6.82929 1.48976 4.4621C1.34675 4.12976 1.68467 3.79727 2.01701 3.94038C4.45208 4.9887 8.71695 4.04749 12.7964 3.96935C13.1511 3.96256 13.4871 3.97699 13.8055 4.00924L14.9335 5.39984L14.9824 4.22543C17.9277 5.0291 18.9804 7.85271 18.9804 7.85271" stroke="#5DC94E" stroke-miterlimit="10" stroke-linecap="round" stroke-linejoin="round"/>
<path d="M1.11035 13.0751L3.79109 12.5991C6.64334 12.1041 7.6332 13.0494 8.85176 13.8009L12.9928 15.4686C13.8294 15.9845 14.1377 17.0512 13.7053 17.9338L7.13285 15.9335" stroke="#5DC94E" stroke-miterlimit="10" stroke-linecap="round" stroke-linejoin="round"/>
<path d="M2.86719 17.9337H4.87831L8.69337 19.6658C10.0056 20.2616 11.4928 20.346 12.8642 19.9028C14.2851 19.4435 16.0561 18.8765 16.9471 18.5916C17.3223 18.4717 17.6691 18.277 17.967 18.0193L22.6908 13.9331C22.1063 13.1715 21.0235 13.0097 20.2419 13.5673L16.8803 15.9652L13.9001 16.5845" stroke="#5DC94E" stroke-miterlimit="10" stroke-linecap="round" stroke-linejoin="round"/>
<path d="M12.9932 15.4686L16.1575 13.6451C17.3016 12.9858 18.7317 13.0883 19.7701 13.9041" stroke="#5DC94E" stroke-miterlimit="10" stroke-linecap="round" stroke-linejoin="round"/>
<path d="M11.0977 14.7053L14.0222 12.9431C14.9334 12.418 16.0723 12.4997 16.8993 13.1494" stroke="#5DC94E" stroke-miterlimit="10" stroke-linecap="round" stroke-linejoin="round"/>
</svg>
