<svg width="24" height="24" viewBox="0 0 24 24" fill="none" xmlns="http://www.w3.org/2000/svg">
<g clip-path="url(#clip0_43_173)">
<path d="M12.0006 2.39998C12.2215 2.39998 12.4006 2.22088 12.4006 1.99998V0.399996C12.4006 0.179098 12.2215 0 12.0006 0C11.7797 0 11.6006 0.179098 11.6006 0.399996V1.99998C11.6006 2.22088 11.7796 2.39998 12.0006 2.39998Z" fill="#5DC94E"/>
<path d="M7.05403 1.83287L7.85402 3.21805C7.96322 3.4101 8.20742 3.47725 8.39946 3.36805C8.59151 3.25885 8.65866 3.01466 8.54946 2.82261C8.54861 2.82106 8.54771 2.81956 8.54681 2.81801L7.74682 1.43282C7.63762 1.24077 7.39342 1.17362 7.20138 1.28282C7.00933 1.39202 6.94218 1.63622 7.05138 1.82827C7.05223 1.82982 7.05313 1.83137 7.05403 1.83287Z" fill="#5DC94E"/>
<path d="M3.82864 5.34375C3.83014 5.34465 3.83168 5.3455 3.83323 5.3464L5.21842 6.14639C5.40902 6.25809 5.65407 6.19419 5.76576 6.0036C5.87746 5.813 5.81356 5.56795 5.62297 5.45625C5.62147 5.45535 5.61992 5.4545 5.61837 5.4536L4.23318 4.65361C4.04258 4.54191 3.79754 4.60581 3.68584 4.79641C3.57414 4.98696 3.63804 5.23205 3.82864 5.34375Z" fill="#5DC94E"/>
<path d="M4.80037 9.59995C4.80037 9.37905 4.62127 9.19995 4.40037 9.19995H2.80039C2.57949 9.19995 2.40039 9.37905 2.40039 9.59995C2.40039 9.82084 2.57949 9.99994 2.80039 9.99994H4.40037C4.62127 9.99994 4.80037 9.82084 4.80037 9.59995Z" fill="#5DC94E"/>
<path d="M5.2231 13.0508C5.22155 13.0517 5.22 13.0526 5.21845 13.0535L3.83327 13.8535C3.64122 13.9627 3.57402 14.2069 3.68317 14.3989C3.79232 14.591 4.03651 14.6582 4.22856 14.549C4.23011 14.5481 4.23166 14.5472 4.23321 14.5463L5.6184 13.7463C5.81045 13.6372 5.87764 13.393 5.7685 13.2009C5.65935 13.0089 5.41515 12.9417 5.2231 13.0508Z" fill="#5DC94E"/>
<path d="M20.1719 13.8562C20.1704 13.8553 20.1688 13.8544 20.1673 13.8535L18.7821 13.0535C18.5915 12.9418 18.3465 13.0057 18.2347 13.1962C18.123 13.3868 18.1869 13.6319 18.3774 13.7436C18.379 13.7445 18.3805 13.7454 18.382 13.7463L19.7672 14.5463C19.9578 14.6581 20.2029 14.5942 20.3146 14.4036C20.4264 14.213 20.3625 13.968 20.1719 13.8562Z" fill="#5DC94E"/>
<path d="M21.2002 9.19995H19.6002C19.3793 9.19995 19.2002 9.37905 19.2002 9.59995C19.2002 9.82084 19.3793 9.99994 19.6002 9.99994H21.2002C21.4211 9.99994 21.6002 9.82084 21.6002 9.59995C21.6002 9.37905 21.4211 9.19995 21.2002 9.19995Z" fill="#5DC94E"/>
<path d="M18.5827 6.20002C18.6529 6.20002 18.7219 6.18152 18.7827 6.14642L20.1679 5.34643C20.3599 5.23723 20.4271 4.99303 20.3179 4.80099C20.2087 4.60894 19.9645 4.54179 19.7725 4.65099C19.7709 4.65184 19.7694 4.65274 19.7679 4.65364L18.3827 5.45363C18.1914 5.56408 18.1258 5.80873 18.2363 6.00002C18.3078 6.12377 18.4398 6.20002 18.5827 6.20002Z" fill="#5DC94E"/>
<path d="M15.6002 3.36461C15.6003 3.36471 15.6005 3.36481 15.6006 3.36486C15.7919 3.47521 16.0366 3.40956 16.1469 3.21816L16.147 3.21806L16.947 1.83288C17.0587 1.64233 16.9948 1.39723 16.8043 1.28548C16.6137 1.17373 16.3686 1.23763 16.2569 1.42818C16.256 1.42973 16.2551 1.43128 16.2542 1.43283L15.4542 2.81802C15.3436 3.00927 15.409 3.25396 15.6002 3.36461Z" fill="#5DC94E"/>
<path d="M12.8003 15.9999C13.0212 15.9999 13.2003 15.8208 13.2003 15.5999V11.2H14.0003C14.884 11.2 15.6003 10.4836 15.6003 9.59998C15.6003 8.71634 14.884 8 14.0003 8C13.1167 8 12.4003 8.71634 12.4003 9.59998V10.4H11.6004V9.59998C11.6004 8.71634 10.884 8 10.0004 8C9.11673 8 8.40039 8.71634 8.40039 9.59998C8.40039 10.4836 9.11673 11.2 10.0004 11.2H10.8004V15.5999C10.8004 15.8208 10.9795 15.9999 11.2004 15.9999C11.4213 15.9999 11.6004 15.8208 11.6004 15.5999V11.2H12.4003V15.5999C12.4003 15.8208 12.5794 15.9999 12.8003 15.9999ZM13.2003 9.59998C13.2003 9.15814 13.5585 8.79999 14.0003 8.79999C14.4422 8.79999 14.8003 9.15814 14.8003 9.59998C14.8003 10.0418 14.4422 10.4 14.0003 10.4H13.2003V9.59998ZM10.8004 10.4H10.0004C9.55853 10.4 9.20038 10.0418 9.20038 9.59998C9.20038 9.15814 9.55853 8.79999 10.0004 8.79999C10.4422 8.79999 10.8004 9.15814 10.8004 9.59998V10.4Z" fill="#5DC94E"/>
<path d="M12.3116 3.20746C8.78105 3.03786 5.78148 5.76238 5.61188 9.29289C5.51474 11.3145 6.37958 13.2629 7.94401 14.5469C8.22596 14.7678 8.39371 15.1037 8.40081 15.4617V16.3997C8.40291 16.9064 8.72305 17.3572 9.2008 17.5261V17.9997C9.20185 18.2959 9.31305 18.581 9.51279 18.7997C9.0968 19.2519 9.0968 19.9475 9.51279 20.3997C9.0681 20.8872 9.1028 21.6429 9.59029 22.0876C9.81174 22.2896 10.101 22.401 10.4008 22.3997C10.6161 22.4053 10.7952 22.2353 10.8008 22.02C10.803 21.936 10.778 21.8535 10.7296 21.7849C10.7169 21.7604 10.7019 21.7372 10.6848 21.7157C10.6519 21.6856 10.6143 21.661 10.5736 21.6429C10.562 21.6369 10.5504 21.6321 10.5384 21.6273C10.4979 21.6125 10.4554 21.604 10.4124 21.6021C10.4084 21.6021 10.4048 21.5997 10.4008 21.5997C10.1799 21.5997 10.0008 21.4206 10.0008 21.1997C10.0008 20.9788 10.1799 20.7997 10.4008 20.7997H12.0008C12.2217 20.7997 12.4008 20.6206 12.4008 20.3997C12.4008 20.1788 12.2217 19.9997 12.0008 19.9997H10.4008C10.1799 19.9997 10.0008 19.8206 10.0008 19.5997C10.0008 19.3788 10.1799 19.1997 10.4008 19.1997H12.0008C12.2217 19.1997 12.4008 19.0206 12.4008 18.7997C12.4008 18.5788 12.2217 18.3997 12.0008 18.3997H10.4008C10.1799 18.3997 10.0008 18.2206 10.0008 17.9997V17.5997H12.0008C12.2217 17.5997 12.4008 17.4206 12.4008 17.1997C12.4008 16.9788 12.2217 16.7997 12.0008 16.7997H9.60079C9.3799 16.7997 9.2008 16.6206 9.2008 16.3997V15.4617C9.19425 14.8636 8.9188 14.3002 8.45081 13.9277C6.06143 11.9641 5.71638 8.4352 7.68006 6.04583C8.80335 4.67904 10.5064 3.92345 12.2736 4.00785C15.2289 4.18365 17.5503 6.60567 17.6007 9.56579C17.6151 11.2684 16.8495 12.8839 15.5227 13.9509C15.0582 14.3335 14.7926 14.9064 14.8007 15.5081V16.3997C14.8007 16.6206 14.6216 16.7997 14.4007 16.7997H13.2008C12.9799 16.7997 12.8008 16.9788 12.8008 17.1997C12.8008 17.4206 12.9799 17.5997 13.2008 17.5997H14.0007V17.9997C14.0007 18.2206 13.8216 18.3997 13.6008 18.3997H13.2008C12.9799 18.3997 12.8008 18.5788 12.8008 18.7997C12.8008 19.0206 12.9799 19.1997 13.2008 19.1997H13.6008C13.8216 19.1997 14.0007 19.3788 14.0007 19.5997C14.0007 19.8206 13.8216 19.9997 13.6008 19.9997H13.2008C12.9799 19.9997 12.8008 20.1788 12.8008 20.3997C12.8008 20.6206 12.9799 20.7997 13.2008 20.7997H13.6008C13.8216 20.7997 14.0007 20.9788 14.0007 21.1997C14.0007 21.4206 13.8216 21.5997 13.6008 21.5997H11.6008C11.3799 21.5997 11.2008 21.7788 11.2008 21.9997C11.2008 22.2206 11.3799 22.3997 11.6008 22.3997H13.1324C12.9115 23.0245 12.2259 23.352 11.6011 23.1312C11.4098 23.0636 11.2388 22.9485 11.104 22.7969C10.9571 22.6319 10.7042 22.6172 10.5392 22.7641C10.3742 22.911 10.3595 23.1639 10.5064 23.3288C11.2379 24.1532 12.4992 24.2284 13.3236 23.4969C13.6641 23.1948 13.891 22.7854 13.9667 22.3365C14.5932 22.1407 14.9423 21.4741 14.7465 20.8477C14.6945 20.6812 14.6065 20.5283 14.4887 20.3997C14.9047 19.9475 14.9047 19.2519 14.4887 18.7997C14.6885 18.581 14.7997 18.2959 14.8007 17.9997V17.5261C15.2785 17.3572 15.5986 16.9064 15.6007 16.3997V15.5081C15.5954 15.1488 15.7511 14.8058 16.0251 14.5733C17.5423 13.3536 18.4176 11.5064 18.4007 9.55979C18.3429 6.17643 15.6894 3.40831 12.3116 3.20746Z" fill="#5DC94E"/>
</g>
<defs>
<clipPath id="clip0_43_173">
<rect width="24" height="24" fill="white"/>
</clipPath>
</defs>
</svg>
