<svg width="24" height="24" viewBox="0 0 24 24" fill="none" xmlns="http://www.w3.org/2000/svg">
<path d="M12.5 2C10.4233 2 8.39323 2.61581 6.66652 3.76957C4.9398 4.92332 3.59399 6.5632 2.79927 8.48182C2.00455 10.4004 1.79661 12.5116 2.20176 14.5484C2.6069 16.5852 3.60693 18.4562 5.07538 19.9246C6.54383 21.3931 8.41475 22.3931 10.4516 22.7982C12.4884 23.2034 14.5996 22.9955 16.5182 22.2007C18.4368 21.406 20.0767 20.0602 21.2304 18.3335C22.3842 16.6068 23 14.5767 23 12.5C23 9.71523 21.8938 7.04451 19.9246 5.07538C17.9555 3.10625 15.2848 2 12.5 2ZM12.5 22.125C10.5964 22.125 8.73546 21.5605 7.15264 20.5029C5.56982 19.4453 4.33616 17.9421 3.60766 16.1833C2.87917 14.4246 2.68856 12.4893 3.05995 10.6223C3.43133 8.75519 4.34802 7.04018 5.6941 5.6941C7.04018 4.34802 8.75519 3.43132 10.6223 3.05994C12.4893 2.68856 14.4246 2.87917 16.1833 3.60766C17.9421 4.33615 19.4453 5.56981 20.5029 7.15264C21.5605 8.73546 22.125 10.5964 22.125 12.5C22.125 15.0527 21.1109 17.5009 19.3059 19.3059C17.5009 21.1109 15.0527 22.125 12.5 22.125Z" fill="#5DC94E"/>
<path d="M19.3384 7.04208C19.2998 6.9942 19.2516 6.95493 19.1969 6.92683C19.1422 6.89872 19.0822 6.88239 19.0208 6.87889C18.9594 6.87606 18.8982 6.88591 18.8408 6.90781C18.7835 6.92972 18.7312 6.96321 18.6874 7.00621L7.00616 18.6875C6.96264 18.731 6.92878 18.7831 6.9068 18.8406C6.88482 18.8981 6.87521 18.9595 6.87859 19.021C6.88198 19.0824 6.89828 19.1424 6.92645 19.1971C6.95461 19.2519 6.994 19.3 7.04203 19.3385C8.72378 20.6792 10.8404 21.3536 12.9879 21.2329C15.1353 21.1122 17.163 20.2047 18.6838 18.6839C20.2047 17.163 21.1121 15.1353 21.2328 12.9879C21.3536 10.8405 20.6792 8.72383 19.3384 7.04208ZM15.4009 11.5304C15.5061 11.8429 15.5606 12.1702 15.5623 12.4999C15.563 12.9022 15.4842 13.3008 15.3305 13.6726C15.1768 14.0445 14.9513 14.3823 14.6668 14.6668C14.3823 14.9513 14.0444 15.1769 13.6726 15.3306C13.3007 15.4842 12.9022 15.563 12.4998 15.5624C12.1701 15.5605 11.8428 15.5059 11.5303 15.4005L15.4009 11.5304ZM12.9373 18.1874C12.9373 18.2739 12.9117 18.3585 12.8636 18.4305C12.8155 18.5024 12.7472 18.5585 12.6673 18.5916C12.5873 18.6247 12.4994 18.6334 12.4145 18.6165C12.3296 18.5996 12.2517 18.5579 12.1905 18.4968C12.1293 18.4356 12.0876 18.3576 12.0707 18.2727C12.0539 18.1879 12.0625 18.0999 12.0956 18.02C12.1288 17.94 12.1848 17.8717 12.2568 17.8236C12.3287 17.7755 12.4133 17.7499 12.4998 17.7499C12.6159 17.7499 12.7272 17.796 12.8092 17.878C12.8912 17.9601 12.9373 18.0714 12.9373 18.1874ZM12.4998 20.3749C10.8834 20.3733 9.30634 19.8756 7.98178 18.9491L10.8575 16.0734C11.2386 16.2486 11.6454 16.3618 12.0623 16.4085V16.9554C11.7704 17.0586 11.5244 17.2617 11.3678 17.5287C11.2111 17.7958 11.1539 18.1096 11.2062 18.4148C11.2586 18.7199 11.4171 18.9968 11.6539 19.1963C11.8906 19.3959 12.1902 19.5053 12.4998 19.5053C12.8095 19.5053 13.1091 19.3959 13.3458 19.1963C13.5825 18.9968 13.7411 18.7199 13.7934 18.4148C13.8458 18.1096 13.7886 17.7958 13.6319 17.5287C13.4753 17.2617 13.2292 17.0586 12.9373 16.9554V16.4116C13.6767 16.3318 14.3778 16.042 14.9577 15.5764L15.6936 16.3127C15.608 16.4878 15.5631 16.68 15.5623 16.8749C15.5623 17.1345 15.6393 17.3882 15.7835 17.6041C15.9278 17.8199 16.1327 17.9881 16.3726 18.0875C16.6124 18.1868 16.8763 18.2128 17.1309 18.1622C17.3855 18.1115 17.6194 17.9865 17.8029 17.803C17.9865 17.6194 18.1115 17.3855 18.1621 17.1309C18.2128 16.8763 18.1868 16.6124 18.0874 16.3726C17.9881 16.1328 17.8199 15.9278 17.604 15.7836C17.3882 15.6394 17.1344 15.5624 16.8748 15.5624C16.6799 15.5631 16.4877 15.608 16.3127 15.6936L15.5763 14.9573C16.0419 14.3776 16.3317 13.6766 16.4115 12.9374H16.9553C17.0585 13.2293 17.2616 13.4753 17.5287 13.632C17.7957 13.7886 18.1096 13.8458 18.4147 13.7935C18.7199 13.7411 18.9967 13.5826 19.1963 13.3459C19.3958 13.1092 19.5053 12.8095 19.5053 12.4999C19.5053 12.1903 19.3958 11.8906 19.1963 11.6539C18.9967 11.4172 18.7199 11.2587 18.4147 11.2063C18.1096 11.1539 17.7957 11.2111 17.5287 11.3678C17.2616 11.5245 17.0585 11.7705 16.9553 12.0624H16.4102C16.3605 11.6467 16.2453 11.2416 16.069 10.8619L18.949 7.98183C19.7756 9.16184 20.2626 10.546 20.3571 11.9836C20.4515 13.4212 20.1498 14.8572 19.4847 16.1352C18.8197 17.4132 17.8168 18.4843 16.5852 19.2318C15.3536 19.9794 13.9405 20.3747 12.4998 20.3749ZM16.4373 16.8749C16.4373 16.7884 16.463 16.7038 16.5111 16.6318C16.5591 16.5599 16.6275 16.5038 16.7074 16.4707C16.7874 16.4376 16.8753 16.4289 16.9602 16.4458C17.0451 16.4627 17.123 16.5043 17.1842 16.5655C17.2454 16.6267 17.2871 16.7047 17.3039 16.7895C17.3208 16.8744 17.3122 16.9624 17.279 17.0423C17.2459 17.1223 17.1898 17.1906 17.1179 17.2387C17.046 17.2867 16.9614 17.3124 16.8748 17.3124C16.7588 17.3124 16.6475 17.2663 16.5655 17.1843C16.4834 17.1022 16.4373 16.9909 16.4373 16.8749ZM17.7498 12.4999C17.7498 12.4134 17.7755 12.3288 17.8236 12.2568C17.8716 12.1849 17.94 12.1288 18.0199 12.0957C18.0999 12.0626 18.1878 12.0539 18.2727 12.0708C18.3576 12.0877 18.4355 12.1293 18.4967 12.1905C18.5579 12.2517 18.5996 12.3297 18.6164 12.4145C18.6333 12.4994 18.6247 12.5874 18.5915 12.6673C18.5584 12.7473 18.5023 12.8156 18.4304 12.8637C18.3585 12.9117 18.2739 12.9374 18.1873 12.9374C18.0713 12.9374 17.96 12.8913 17.878 12.8093C17.7959 12.7272 17.7498 12.6159 17.7498 12.4999Z" fill="#5DC94E"/>
<path d="M18.1199 5.98135C18.1164 5.91995 18.1001 5.85996 18.0719 5.80525C18.0438 5.75054 18.0046 5.70233 17.9567 5.66373C16.2749 4.32486 14.1592 3.65191 12.013 3.77323C9.86679 3.89456 7.84036 4.80168 6.32021 6.32155C4.80006 7.84143 3.89259 9.8677 3.77088 12.0139C3.64917 14.16 4.32175 16.2759 5.66032 17.9579C5.69892 18.0058 5.74713 18.0451 5.80184 18.0732C5.85654 18.1013 5.91654 18.1176 5.97794 18.1211H6.00201C6.11803 18.1211 6.22929 18.075 6.31132 17.9929L17.9926 6.31167C18.0356 6.26852 18.0692 6.21684 18.0911 6.15996C18.113 6.10308 18.1228 6.04224 18.1199 5.98135ZM9.59826 13.4696C9.49289 13.1572 9.43824 12.8298 9.43638 12.5001C9.43505 12.0143 9.54962 11.5352 9.77058 11.1026C9.99154 10.6699 10.3125 10.2962 10.7069 10.0125C11.1012 9.72881 11.5575 9.54326 12.038 9.47127C12.5184 9.39928 13.0091 9.44293 13.4693 9.5986L9.59826 13.4696ZM12.0614 6.8126C12.0614 6.72607 12.087 6.64149 12.1351 6.56954C12.1832 6.4976 12.2515 6.44152 12.3315 6.40841C12.4114 6.37529 12.4994 6.36663 12.5842 6.38351C12.6691 6.40039 12.7471 6.44206 12.8082 6.50324C12.8694 6.56443 12.9111 6.64239 12.928 6.72725C12.9449 6.81212 12.9362 6.90009 12.9031 6.98003C12.87 7.05997 12.8139 7.1283 12.7419 7.17637C12.67 7.22444 12.5854 7.2501 12.4989 7.2501C12.3828 7.2501 12.2716 7.20401 12.1895 7.12196C12.1075 7.03992 12.0614 6.92864 12.0614 6.8126ZM14.1373 8.93054C13.7576 8.75423 13.3522 8.63948 12.9364 8.5906V8.0446C13.2283 7.9414 13.4743 7.73832 13.631 7.47127C13.7876 7.20421 13.8448 6.89037 13.7925 6.58522C13.7401 6.28007 13.5816 6.00324 13.3449 5.80368C13.1081 5.60412 12.8085 5.49467 12.4989 5.49467C12.1893 5.49467 11.8896 5.60412 11.6529 5.80368C11.4162 6.00324 11.2576 6.28007 11.2053 6.58522C11.1529 6.89037 11.2101 7.20421 11.3668 7.47127C11.5234 7.73832 11.7695 7.9414 12.0614 8.0446V8.58842C11.322 8.66816 10.6209 8.95798 10.041 9.4236L9.30513 8.68729C9.39075 8.5122 9.43563 8.32 9.43638 8.1251C9.43638 7.86552 9.3594 7.61176 9.21518 7.39592C9.07097 7.18008 8.86598 7.01185 8.62615 6.91251C8.38632 6.81317 8.12242 6.78718 7.86782 6.83782C7.61322 6.88847 7.37936 7.01347 7.1958 7.19703C7.01225 7.38058 6.88724 7.61445 6.8366 7.86905C6.78596 8.12365 6.81195 8.38755 6.91129 8.62738C7.01063 8.8672 7.17885 9.07219 7.39469 9.21641C7.61053 9.36063 7.86429 9.4376 8.12388 9.4376C8.31878 9.43685 8.51098 9.39198 8.68607 9.30635L9.42238 10.0427C8.95683 10.6224 8.66702 11.3234 8.58719 12.0626H8.04338C7.94018 11.7707 7.7371 11.5247 7.47005 11.368C7.20299 11.2114 6.88915 11.1541 6.584 11.2065C6.27884 11.2589 6.00202 11.4174 5.80246 11.6541C5.6029 11.8908 5.49344 12.1905 5.49344 12.5001C5.49344 12.8097 5.6029 13.1094 5.80246 13.3461C6.00202 13.5828 6.27884 13.7413 6.584 13.7937C6.88915 13.8461 7.20299 13.7888 7.47005 13.6322C7.7371 13.4755 7.94018 13.2295 8.04338 12.9376H8.58938C8.63636 13.3546 8.7498 13.7614 8.92538 14.1425L6.04969 17.0182C4.98833 15.5016 4.49514 13.6596 4.6567 11.8155C4.81827 9.97151 5.62427 8.24333 6.93319 6.93441C8.24211 5.62549 9.97028 4.81949 11.8143 4.65793C13.6583 4.49636 15.5003 4.98955 17.0169 6.05092L14.1373 8.93054ZM8.56138 8.1251C8.56138 8.21163 8.53572 8.29622 8.48765 8.36817C8.43958 8.44011 8.37125 8.49619 8.2913 8.5293C8.21136 8.56241 8.12339 8.57108 8.03853 8.5542C7.95366 8.53732 7.87571 8.49565 7.81452 8.43446C7.75334 8.37328 7.71167 8.29532 7.69479 8.21046C7.67791 8.12559 7.68657 8.03762 7.71968 7.95768C7.7528 7.87774 7.80887 7.80941 7.88082 7.76134C7.95276 7.71326 8.03735 7.6876 8.12388 7.6876C8.23991 7.6876 8.35119 7.7337 8.43324 7.81574C8.51529 7.89779 8.56138 8.00907 8.56138 8.1251ZM7.24888 12.5001C7.24888 12.5866 7.22322 12.6712 7.17515 12.7432C7.12708 12.8151 7.05875 12.8712 6.9788 12.9043C6.89886 12.9374 6.8109 12.9461 6.72603 12.9292C6.64116 12.9123 6.56321 12.8706 6.50202 12.8095C6.44084 12.7483 6.39917 12.6703 6.38229 12.5855C6.36541 12.5006 6.37407 12.4126 6.40718 12.3327C6.4403 12.2527 6.49637 12.1844 6.56832 12.1363C6.64026 12.0883 6.72485 12.0626 6.81138 12.0626C6.92741 12.0626 7.03869 12.1087 7.12074 12.1907C7.20279 12.2728 7.24888 12.3841 7.24888 12.5001Z" fill="#5DC94E"/>
<path d="M11.1865 11.6248C11.4281 11.6248 11.624 11.4289 11.624 11.1873C11.624 10.9456 11.4281 10.7498 11.1865 10.7498C10.9449 10.7498 10.749 10.9456 10.749 11.1873C10.749 11.4289 10.9449 11.6248 11.1865 11.6248Z" fill="#5DC94E"/>
<path d="M13.8115 14.2498C14.0531 14.2498 14.249 14.0539 14.249 13.8123C14.249 13.5706 14.0531 13.3748 13.8115 13.3748C13.5699 13.3748 13.374 13.5706 13.374 13.8123C13.374 14.0539 13.5699 14.2498 13.8115 14.2498Z" fill="#5DC94E"/>
</svg>
