<svg width="24" height="24" viewBox="0 0 24 24" fill="none" xmlns="http://www.w3.org/2000/svg">
<path d="M21.5527 18.7458H15.0064C15.6358 18.4019 16.2012 17.9521 16.6777 17.4161C17.2581 16.7602 17.699 15.9931 17.9737 15.1615C18.2484 14.3299 18.3511 13.4511 18.2756 12.5786C18.27 12.513 18.2633 12.4462 18.2554 12.3798C18.2365 11.7151 18.0208 11.0709 17.6355 10.5288C17.5441 10.4163 17.4453 10.3101 17.3396 10.2108C17.1962 10.0773 17.0664 9.92996 16.9519 9.77096C16.7478 9.48066 16.5839 9.16419 16.4644 8.83008C16.2594 8.11042 16.299 7.3431 16.5769 6.64833C16.6041 6.57559 16.6081 6.49617 16.5883 6.42107C16.5684 6.34596 16.5258 6.27886 16.4662 6.22905C16.4065 6.17924 16.3329 6.14917 16.2555 6.143C16.1781 6.13682 16.1006 6.15485 16.0339 6.19458C15.5117 6.50502 15.0245 6.87062 14.5804 7.28508C14.3429 7.50663 14.1186 7.74178 13.9084 7.98933C13.8397 7.03438 13.5714 6.10447 13.1209 5.25971C12.2249 3.63593 10.7343 2.42269 8.9625 1.87496C8.89066 1.8527 8.81378 1.85255 8.74185 1.87454C8.66993 1.89653 8.60628 1.93965 8.55917 1.99828C8.51206 2.05691 8.48367 2.12836 8.47769 2.20333C8.47171 2.27831 8.48841 2.35335 8.52563 2.41871C8.904 3.08433 9.73387 4.80183 9.26437 6.37083C9.02247 7.0894 8.67587 7.76834 8.23575 8.38571C8.11238 8.56158 8.03625 8.65383 7.93575 8.77683C7.84312 8.88933 7.73062 9.02583 7.551 9.26133C7.01008 9.9001 6.54242 10.5974 6.15675 11.3403C5.68899 12.4234 5.57227 13.6259 5.823 14.7787C6.00382 15.6095 6.37192 16.388 6.89925 17.055C7.39553 17.665 8.00946 18.169 8.7045 18.537C8.8335 18.612 8.96287 18.6791 9.09225 18.7443H2.44725C1.99711 18.7443 1.56541 18.9231 1.24711 19.2414C0.928817 19.5597 0.75 19.9914 0.75 20.4416C0.75 20.8917 0.928817 21.3234 1.24711 21.6417C1.56541 21.96 1.99711 22.1388 2.44725 22.1388H21.5527C22.0029 22.1388 22.4346 21.96 22.7529 21.6417C23.0712 21.3234 23.25 20.8917 23.25 20.4416C23.25 19.9914 23.0712 19.5597 22.7529 19.2414C22.4346 18.9231 22.0029 18.7443 21.5527 18.7443V18.7458ZM12.501 13.6998C12.5828 13.9873 12.7325 14.251 12.9375 14.4686C13.0339 14.5946 13.1569 14.7562 13.3155 14.973C14.0483 15.9746 14.4011 16.473 14.421 16.8363C14.4175 17.082 14.3633 17.3242 14.262 17.548C14.1606 17.7717 14.0142 17.9722 13.8319 18.1368C13.5339 18.4376 13.1484 18.6365 12.7305 18.705C12.576 18.723 12.4207 18.7383 12.2636 18.7425C12.174 18.7451 12.09 18.7372 12.0011 18.7357C11.8902 18.7267 11.78 18.7105 11.6711 18.6873C11.2812 18.5872 10.9185 18.4014 10.6095 18.1434C10.3004 17.8854 10.0528 17.5617 9.88462 17.196C9.60257 16.5239 9.55812 15.7757 9.75863 15.075C10.026 13.7336 10.638 12.7938 11.5774 12.2816C11.9953 12.0563 12.4564 11.9228 12.93 11.8897C12.7377 12.1456 12.6004 12.4385 12.5266 12.75C12.4528 13.0615 12.444 13.3848 12.501 13.6998ZM7.48575 16.59C6.94367 15.9013 6.59746 15.0792 6.48361 14.2103C6.36976 13.3413 6.49249 12.4577 6.83887 11.6527C7.20241 10.9618 7.64093 10.313 8.1465 9.71808C8.31825 9.49308 8.42587 9.36258 8.51437 9.25496C8.62687 9.11771 8.712 9.01458 8.85188 8.81846C9.33729 8.13462 9.71915 7.3829 9.98513 6.58758C10.3819 5.26158 10.0129 3.88758 9.61575 2.93808C10.7743 3.47011 11.7376 4.35089 12.3709 5.45727C13.0043 6.56364 13.2761 7.84029 13.1483 9.10871C13.1404 9.19259 13.1611 9.27666 13.2069 9.34737C13.2527 9.41807 13.321 9.4713 13.4007 9.49846C13.4805 9.52562 13.5671 9.52513 13.6465 9.49708C13.7259 9.46903 13.7936 9.41505 13.8386 9.34383C14.1899 8.78967 14.6104 8.28258 15.09 7.83483C15.2587 7.67708 15.4349 7.52708 15.6184 7.38483C15.5323 7.94924 15.578 8.52589 15.7519 9.06971C15.8948 9.47633 16.094 9.86094 16.3436 10.2123C16.4835 10.4066 16.6418 10.5868 16.8165 10.7505C16.8995 10.8279 16.9773 10.9109 17.0494 10.9987C17.3448 11.432 17.5052 11.9432 17.5103 12.4676C17.517 12.5276 17.5234 12.5872 17.5286 12.6468C17.595 13.4174 17.5041 14.1935 17.2614 14.9278C17.0187 15.6622 16.6293 16.3396 16.1168 16.9188C15.7617 17.3194 15.3503 17.6661 14.8954 17.9482C15.0902 17.5967 15.1851 17.1986 15.1699 16.797C15.1376 16.1943 14.7053 15.6033 13.9211 14.5308C13.7584 14.3088 13.6328 14.1435 13.5338 14.0141C13.2923 13.6976 13.2596 13.65 13.2304 13.5266C13.1179 13.0496 13.362 12.4605 13.959 11.7757C14.004 11.724 14.034 11.6609 14.0457 11.5933C14.0574 11.5258 14.0503 11.4563 14.0253 11.3925C14.0002 11.3286 13.9581 11.2729 13.9036 11.2313C13.8491 11.1897 13.7842 11.1639 13.716 11.1566C12.8556 11.0556 11.9849 11.219 11.2196 11.625C10.0759 12.2482 9.33712 13.3601 9.02437 14.9298C8.79214 15.7883 8.85663 16.7001 9.20737 17.5173C9.31638 17.7423 9.44753 17.9559 9.59888 18.1548C9.4245 18.0723 9.2505 17.9872 9.07687 17.8878C8.46424 17.5672 7.92297 17.1257 7.48575 16.59ZM21.5527 21.39H2.44725C2.19602 21.39 1.95509 21.2902 1.77744 21.1125C1.5998 20.9349 1.5 20.6939 1.5 20.4427C1.5 20.1915 1.5998 19.9505 1.77744 19.7729C1.95509 19.5953 2.19602 19.4955 2.44725 19.4955H21.5527C21.804 19.4955 22.0449 19.5953 22.2226 19.7729C22.4002 19.9505 22.5 20.1915 22.5 20.4427C22.5 20.6939 22.4002 20.9349 22.2226 21.1125C22.0449 21.2902 21.804 21.39 21.5527 21.39Z" fill="#5DC94E" stroke="#5DC94E" stroke-width="0.3"/>
</svg>
