<svg width="24" height="24" viewBox="0 0 24 24" fill="none" xmlns="http://www.w3.org/2000/svg">
<path fill-rule="evenodd" clip-rule="evenodd" d="M21.5 6.29947C21.5 5.31197 20.918 4.41647 20.0155 4.01497C18.157 3.18947 14.61 1.61297 13.0155 0.903971C12.369 0.616971 11.631 0.616971 10.9845 0.903971C9.39 1.61297 5.843 3.18947 3.9845 4.01497C3.082 4.41647 2.5 5.31197 2.5 6.29947V14C2.5 17.087 4.208 19.283 6.19 20.7785C8.1165 22.2315 10.2945 23.014 11.303 23.323C11.3055 23.324 11.3085 23.3245 11.311 23.3255C11.761 23.455 12.2385 23.455 12.6885 23.326C12.6915 23.325 12.6945 23.3245 12.6975 23.3235C13.706 23.014 15.8835 22.232 17.81 20.7785C19.792 19.283 21.5 17.087 21.5 14V6.29947ZM20.5 6.29947V14C20.5 16.7305 18.961 18.657 17.2075 19.98C15.4015 21.343 13.3585 22.0745 12.409 22.366C12.1425 22.4415 11.86 22.4415 11.5935 22.366C10.642 22.074 8.599 21.343 6.7925 19.98C5.039 18.657 3.5 16.7305 3.5 14V6.29947C3.5 5.70697 3.84901 5.16997 4.39101 4.92897C6.24901 4.10297 9.79601 2.52647 11.391 1.81797C11.7785 1.64547 12.2215 1.64547 12.609 1.81797C14.204 2.52647 17.751 4.10297 19.609 4.92897C20.151 5.16997 20.5 5.70697 20.5 6.29947Z" fill="#5DC94E"/>
<path fill-rule="evenodd" clip-rule="evenodd" d="M12.0002 6.61157C8.99517 6.61157 6.55566 9.05107 6.55566 12.0556C6.55566 15.0606 8.99517 17.5001 12.0002 17.5001C15.0052 17.5001 17.4447 15.0606 17.4447 12.0556C17.4447 9.05107 15.0052 6.61157 12.0002 6.61157ZM12.0002 7.61157C14.4532 7.61157 16.4447 9.60257 16.4447 12.0556C16.4447 14.5086 14.4532 16.5001 12.0002 16.5001C9.54717 16.5001 7.55566 14.5086 7.55566 12.0556C7.55566 9.60257 9.54717 7.61157 12.0002 7.61157Z" fill="#5DC94E"/>
<path fill-rule="evenodd" clip-rule="evenodd" d="M9.50291 12.4245L10.9169 13.8385C11.112 14.0337 11.4288 14.0337 11.6239 13.8385L14.4519 11.0105C14.647 10.8154 14.647 10.4987 14.4519 10.3035C14.2568 10.1084 13.94 10.1084 13.7449 10.3035L11.2704 12.778L10.2099 11.7175C10.0148 11.5224 9.69805 11.5224 9.50291 11.7175C9.30778 11.9127 9.30778 12.2294 9.50291 12.4245Z" fill="#5DC94E"/>
</svg>
