<svg width="15" height="15" viewBox="0 0 15 15" fill="none" xmlns="http://www.w3.org/2000/svg">
<path d="M1.56183 10.625C1.12522 8.56454 1.12522 6.43546 1.56183 4.375C1.6192 4.16576 1.73004 3.97505 1.88346 3.82163C2.03688 3.66821 2.22759 3.55737 2.43683 3.5C5.78899 2.94466 9.20968 2.94466 12.5618 3.5C12.7711 3.55737 12.9618 3.66821 13.1152 3.82163C13.2686 3.97505 13.3795 4.16576 13.4368 4.375C13.8734 6.43546 13.8734 8.56454 13.4368 10.625C13.3795 10.8342 13.2686 11.025 13.1152 11.1784C12.9618 11.3318 12.7711 11.4426 12.5618 11.5C9.20969 12.0555 5.78898 12.0555 2.43683 11.5C2.22759 11.4426 2.03688 11.3318 1.88346 11.1784C1.73004 11.025 1.6192 10.8342 1.56183 10.625Z" stroke="black" stroke-opacity="0.55" stroke-width="1.25" stroke-linecap="round" stroke-linejoin="round"/>
<path d="M6.25 9.375L9.375 7.5L6.25 5.625V9.375Z" stroke="black" stroke-opacity="0.55" stroke-width="1.25" stroke-linecap="round" stroke-linejoin="round"/>
</svg>
