<svg width="38" height="38" viewBox="0 0 38 38" fill="none" xmlns="http://www.w3.org/2000/svg">
<path d="M26.2692 27.0377L23.8032 29.1823C31.0184 28.5173 35.6236 26.7551 35.6236 25.209V21.6401C33.5454 23.3082 28.8184 24.3611 23.709 24.81L26.2692 27.0377Z" fill="white"/>
<path d="M31.9336 22.2055C34.2888 21.4517 35.6243 20.554 35.6243 19.7172C35.6243 18.8971 34.2611 17.9882 31.9336 17.2401V22.2055Z" fill="white"/>
<path d="M5.87734 22.1279V17.4452C3.31154 18.2765 2.375 19.1909 2.375 19.7949C2.375 20.5319 3.61081 21.3909 5.87734 22.1279Z" fill="white"/>
<path d="M24.5805 27.0378L20.1582 23.1974V24.4055C20.1578 24.5523 20.0993 24.693 19.9954 24.7969C19.8916 24.9007 19.7509 24.9592 19.6041 24.9596C12.5385 24.9596 5.12371 23.8181 2.375 21.6624V25.065C2.375 26.7551 8.93082 29.1215 19.6041 29.1215C19.6769 29.1212 19.7491 29.1354 19.8164 29.1631C19.8838 29.1909 19.945 29.2317 19.9965 29.2832C20.048 29.3347 20.0888 29.3959 20.1166 29.4633C20.1443 29.5306 20.1585 29.6028 20.1582 29.6756V30.8837L24.5805 27.0378Z" fill="white"/>
<path d="M25.6434 17.6411C26.3676 17.6403 27.0618 17.3523 27.5739 16.8403C28.0859 16.3282 28.3739 15.634 28.3747 14.9098V12.0599C28.3737 11.3362 28.0854 10.6425 27.5733 10.1312C27.0612 9.61985 26.3671 9.33264 25.6434 9.33264C24.9197 9.33264 24.2256 9.61985 23.7135 10.1312C23.2014 10.6425 22.9132 11.3362 22.9121 12.0599V14.9098C22.9129 15.634 23.2009 16.3282 23.713 16.8403C24.225 17.3523 24.9193 17.6403 25.6434 17.6411ZM24.0996 12.0599C24.1004 11.651 24.2634 11.2591 24.5528 10.9702C24.8423 10.6814 25.2345 10.5191 25.6434 10.5191C26.0523 10.5191 26.4446 10.6814 26.734 10.9702C27.0234 11.2591 27.1864 11.651 27.1872 12.0599V14.9098C27.1876 15.1128 27.148 15.3139 27.0706 15.5015C26.9932 15.6892 26.8795 15.8597 26.7361 16.0034C26.5927 16.1471 26.4224 16.2611 26.2349 16.3388C26.0474 16.4166 25.8464 16.4566 25.6434 16.4566C25.4404 16.4566 25.2394 16.4166 25.0519 16.3388C24.8644 16.2611 24.6941 16.1471 24.5507 16.0034C24.4073 15.8597 24.2937 15.6892 24.2163 15.5015C24.1389 15.3139 24.0992 15.1128 24.0996 14.9098V12.0599Z" fill="white"/>
<path d="M10.1029 11.9289C10.2571 11.96 10.4173 11.929 10.5487 11.8425C10.6801 11.7559 10.7719 11.621 10.8042 11.4671C10.8505 11.2394 10.9628 11.0305 11.1272 10.8664C11.4999 10.4389 12.1955 10.5172 12.7015 10.5162C13.0165 10.5162 13.3185 10.6413 13.5412 10.864C13.7639 11.0867 13.889 11.3887 13.889 11.7037C13.889 12.0186 13.7639 12.3207 13.5411 12.5434C13.3184 12.7661 13.0164 12.8912 12.7014 12.8912C12.546 12.8942 12.3979 12.9581 12.289 13.0691C12.1802 13.1801 12.1192 13.3294 12.1192 13.4849C12.1192 13.6404 12.1802 13.7897 12.2891 13.9007C12.398 14.0118 12.5461 14.0756 12.7015 14.0787C13.0165 14.0787 13.3185 14.2038 13.5412 14.4265C13.7639 14.6492 13.889 14.9512 13.889 15.2662C13.889 15.5811 13.7639 15.8832 13.5411 16.1059C13.3184 16.3286 13.0164 16.4537 12.7014 16.4537H11.9831C11.7075 16.4548 11.4399 16.361 11.2253 16.1881C11.0106 16.0152 10.8621 15.7737 10.8046 15.5042C10.7732 15.3499 10.6818 15.2143 10.5505 15.1274C10.4192 15.0404 10.2587 15.0092 10.1044 15.0406C9.95008 15.072 9.81454 15.1633 9.7276 15.2947C9.64066 15.426 9.60944 15.5864 9.64081 15.7407C9.7536 16.2783 10.048 16.7607 10.4746 17.1068C10.9011 17.4528 11.4338 17.6415 11.983 17.6412H12.7015C13.1835 17.6405 13.6538 17.4932 14.0501 17.2187C14.4463 16.9442 14.7495 16.5556 14.9195 16.1046C15.0895 15.6536 15.1181 15.1615 15.0016 14.6938C14.8851 14.2261 14.629 13.8049 14.2673 13.4863C15.9469 12.1294 14.8541 9.27709 12.7014 9.32869L11.9831 9.32866C11.4341 9.32854 10.9018 9.51717 10.4754 9.86291C10.049 10.2087 9.75448 10.6905 9.64116 11.2276C9.62542 11.304 9.62489 11.3827 9.63958 11.4593C9.65427 11.5359 9.6839 11.6088 9.72678 11.6739C9.76966 11.739 9.82495 11.7951 9.88949 11.8388C9.95403 11.8826 10.0266 11.9132 10.1029 11.9289Z" fill="white"/>
<path d="M19.0106 17.6411C19.3646 17.6538 19.7175 17.5951 20.0483 17.4684C20.3791 17.3417 20.6809 17.1497 20.9359 16.9037C21.1908 16.6578 21.3935 16.363 21.532 16.037C21.6705 15.711 21.7419 15.3604 21.7419 15.0062C21.7419 14.652 21.6705 14.3014 21.532 13.9754C21.3935 13.6493 21.1908 13.3546 20.9359 13.1086C20.6809 12.8627 20.3791 12.6707 20.0483 12.544C19.7175 12.4173 19.3646 12.3586 19.0106 12.3713C18.4614 12.3704 17.9242 12.5321 17.4668 12.836V12.1011C17.4723 11.7848 17.5707 11.4771 17.7497 11.2163C17.9288 10.9555 18.1805 10.7531 18.4737 10.6342C18.7669 10.5154 19.0885 10.4854 19.3986 10.548C19.7087 10.6105 19.9936 10.7629 20.2178 10.9861C20.3749 11.1391 20.4976 11.324 20.5776 11.5282C20.606 11.601 20.6485 11.6675 20.7026 11.7238C20.7567 11.7802 20.8214 11.8253 20.893 11.8566C20.9646 11.8879 21.0417 11.9047 21.1198 11.9062C21.1979 11.9076 21.2756 11.8936 21.3483 11.865C21.421 11.8364 21.4873 11.7937 21.5435 11.7394C21.5997 11.6851 21.6446 11.6203 21.6757 11.5486C21.7068 11.4769 21.7234 11.3998 21.7246 11.3217C21.7258 11.2435 21.7116 11.1659 21.6828 11.0933C21.5424 10.735 21.3276 10.4106 21.0525 10.1415C20.6617 9.75364 20.1653 9.48955 19.6252 9.38227C19.0851 9.275 18.5254 9.32932 18.0161 9.53843C17.5067 9.74753 17.0703 10.1022 16.7614 10.558C16.4525 11.0138 16.2848 11.5505 16.2793 12.1011V15.0063C16.2931 15.7176 16.5884 16.3943 17.1004 16.8882C17.6124 17.3821 18.2993 17.6529 19.0106 17.6411ZM19.0106 13.5588C19.2929 13.577 19.5637 13.6774 19.7897 13.8475C20.0156 14.0177 20.1869 14.2502 20.2824 14.5165C20.3779 14.7828 20.3935 15.0711 20.3272 15.3461C20.2609 15.6211 20.1156 15.8707 19.9093 16.0642C19.7029 16.2577 19.4445 16.3867 19.1658 16.4351C18.8871 16.4836 18.6003 16.4496 18.3407 16.3371C18.0812 16.2247 17.8601 16.0388 17.7048 15.8024C17.5496 15.5659 17.4668 15.2892 17.4668 15.0063C17.4804 14.61 17.6505 14.2351 17.9398 13.9638C18.2291 13.6925 18.6141 13.5469 19.0106 13.5588Z" fill="white"/>
<path d="M30.2852 10.6787C30.6375 10.6787 30.9818 10.5742 31.2748 10.3785C31.5677 10.1828 31.796 9.9046 31.9308 9.57912C32.0656 9.25364 32.1009 8.89549 32.0322 8.54996C31.9635 8.20443 31.7938 7.88704 31.5447 7.63793C31.2956 7.38882 30.9782 7.21917 30.6327 7.15044C30.2871 7.08171 29.929 7.11698 29.6035 7.2518C29.278 7.38662 28.9998 7.61493 28.8041 7.90785C28.6084 8.20078 28.5039 8.54516 28.5039 8.89746C28.5044 9.36972 28.6923 9.82249 29.0262 10.1564C29.3601 10.4904 29.8129 10.6782 30.2852 10.6787ZM30.2852 8.30371C30.4026 8.30371 30.5174 8.33853 30.615 8.40378C30.7127 8.46902 30.7888 8.56175 30.8337 8.67024C30.8786 8.77874 30.8904 8.89812 30.8675 9.0133C30.8446 9.12847 30.788 9.23427 30.705 9.31731C30.622 9.40034 30.5162 9.45689 30.401 9.4798C30.2858 9.50271 30.1664 9.49095 30.0579 9.44602C29.9494 9.40108 29.8567 9.32497 29.7915 9.22733C29.7262 9.12969 29.6914 9.01489 29.6914 8.89746C29.6916 8.74005 29.7542 8.58915 29.8655 8.47784C29.9768 8.36654 30.1277 8.30392 30.2852 8.30371Z" fill="white"/>
<path d="M10.2227 20.1788H27.78C27.9375 20.1788 28.0885 20.1163 28.1999 20.0049C28.3112 19.8936 28.3738 19.7426 28.3738 19.5851C28.3738 19.4276 28.3112 19.2766 28.1999 19.1652C28.0885 19.0539 27.9375 18.9913 27.78 18.9913H10.2227C10.0652 18.9913 9.91416 19.0539 9.80281 19.1652C9.69146 19.2766 9.62891 19.4276 9.62891 19.5851C9.62891 19.7426 9.69146 19.8936 9.80281 20.0049C9.91416 20.1163 10.0652 20.1788 10.2227 20.1788Z" fill="white"/>
</svg>
