<svg width="28" height="28" viewBox="0 0 28 28" fill="none" xmlns="http://www.w3.org/2000/svg">
<path d="M14.0004 7C8.8444 7 2.59608 10.5759 1.45573 14.4362C1.41614 14.5702 1.41017 14.7102 1.44578 14.8453C2.17516 17.6125 7.9523 22.0977 14.0004 22.0977C18.7386 22.0977 25.2157 18.8989 26.5373 14.848C26.5818 14.7114 26.5911 14.567 26.5596 14.4268C25.8005 11.0462 19.618 7 14.0004 7ZM14.0004 20.2398C11.1005 20.2398 8.05813 17.5398 8.05813 14.6398C8.05813 11.7399 10.4963 8.89319 14.0004 8.89319C17.5045 8.89319 19.9116 11.7399 19.9116 14.6398C19.9116 17.5398 17.4701 20.2398 14.0004 20.2398Z" fill="white"/>
<path d="M13.999 18.4722C16.117 18.4722 17.834 16.7552 17.834 14.6372C17.834 12.5192 16.117 10.8022 13.999 10.8022C11.881 10.8022 10.1641 12.5192 10.1641 14.6372C10.1641 16.7552 11.881 18.4722 13.999 18.4722Z" fill="white"/>
</svg>
