<svg width="15" height="15" viewBox="0 0 15 15" fill="none" xmlns="http://www.w3.org/2000/svg">
<g clip-path="url(#clip0_152_1047)">
<path d="M10.625 1.25H4.375C2.64911 1.25 1.25 2.64911 1.25 4.375V10.625C1.25 12.3509 2.64911 13.75 4.375 13.75H10.625C12.3509 13.75 13.75 12.3509 13.75 10.625V4.375C13.75 2.64911 12.3509 1.25 10.625 1.25Z" stroke="white" stroke-width="1.25" stroke-linecap="round" stroke-linejoin="round"/>
<path d="M10.0003 7.10644C10.0774 7.62659 9.98859 8.15782 9.7464 8.62457C9.50422 9.09132 9.12102 9.46982 8.65132 9.70623C8.18162 9.94265 7.64933 10.0249 7.13017 9.9414C6.61101 9.85786 6.13141 9.61274 5.75958 9.24091C5.38775 8.86909 5.14264 8.38949 5.0591 7.87032C4.97556 7.35116 5.05785 6.81887 5.29426 6.34917C5.53067 5.87947 5.90917 5.49628 6.37592 5.25409C6.84267 5.0119 7.3739 4.92306 7.89406 5.00019C8.42463 5.07887 8.91584 5.3261 9.29511 5.70538C9.67439 6.08466 9.92163 6.57586 10.0003 7.10644Z" stroke="white" stroke-width="1.25" stroke-linecap="round" stroke-linejoin="round"/>
<path d="M10.9375 4.0625H10.9438" stroke="white" stroke-width="1.25" stroke-linecap="round" stroke-linejoin="round"/>
</g>
<defs>
<clipPath id="clip0_152_1047">
<rect width="15" height="15" fill="white"/>
</clipPath>
</defs>
</svg>
