<svg width="20" height="20" viewBox="0 0 20 20" fill="none" xmlns="http://www.w3.org/2000/svg">
<path d="M18.3322 14.0999V16.5999C18.3332 16.832 18.2856 17.0617 18.1926 17.2744C18.0997 17.487 17.9633 17.6779 17.7923 17.8348C17.6213 17.9917 17.4194 18.1112 17.1995 18.1855C16.9797 18.2599 16.7467 18.2875 16.5156 18.2666C13.9512 17.988 11.4881 17.1117 9.32389 15.7083C7.31041 14.4288 5.60333 12.7217 4.32389 10.7083C2.91553 8.53426 2.03909 6.05908 1.76555 3.48325C1.74473 3.25281 1.77212 3.02055 1.84597 2.80127C1.91982 2.58199 2.03853 2.38049 2.19452 2.2096C2.35052 2.03871 2.54039 1.90218 2.75205 1.80869C2.9637 1.7152 3.1925 1.6668 3.42389 1.66658H5.92389C6.32831 1.6626 6.72038 1.80582 7.02702 2.06953C7.33366 2.33324 7.53395 2.69946 7.59055 3.09992C7.69607 3.89997 7.89176 4.68552 8.17389 5.44158C8.28601 5.73985 8.31027 6.06401 8.24381 6.37565C8.17735 6.68729 8.02294 6.97334 7.79889 7.19992L6.74055 8.25825C7.92685 10.3445 9.65426 12.072 11.7406 13.2583L12.7989 12.1999C13.0255 11.9759 13.3115 11.8215 13.6232 11.755C13.9348 11.6885 14.2589 11.7128 14.5572 11.8249C15.3133 12.107 16.0988 12.3027 16.8989 12.4083C17.3037 12.4654 17.6734 12.6693 17.9377 12.9812C18.2019 13.2931 18.3424 13.6912 18.3322 14.0999Z" stroke="#5DC94E" stroke-width="1.16667" stroke-linecap="round" stroke-linejoin="round"/>
</svg>
