<svg width="15" height="15" viewBox="0 0 15 15" fill="none" xmlns="http://www.w3.org/2000/svg">
<g clip-path="url(#clip0_152_1060)">
<path d="M1.56281 10.625C1.1262 8.56454 1.1262 6.43546 1.56281 4.375C1.62018 4.16576 1.73102 3.97505 1.88444 3.82163C2.03786 3.66821 2.22857 3.55737 2.43781 3.5C5.78997 2.94466 9.21065 2.94466 12.5628 3.5C12.7721 3.55737 12.9628 3.66821 13.1162 3.82163C13.2696 3.97505 13.3804 4.16576 13.4378 4.375C13.8744 6.43546 13.8744 8.56454 13.4378 10.625C13.3804 10.8342 13.2696 11.025 13.1162 11.1784C12.9628 11.3318 12.7721 11.4426 12.5628 11.5C9.21066 12.0555 5.78996 12.0555 2.43781 11.5C2.22857 11.4426 2.03786 11.3318 1.88444 11.1784C1.73102 11.025 1.62018 10.8342 1.56281 10.625Z" stroke="white" stroke-width="1.25" stroke-linecap="round" stroke-linejoin="round"/>
<path d="M6.25 9.375L9.375 7.5L6.25 5.625V9.375Z" stroke="white" stroke-width="1.25" stroke-linecap="round" stroke-linejoin="round"/>
</g>
<defs>
<clipPath id="clip0_152_1060">
<rect width="15" height="15" fill="white"/>
</clipPath>
</defs>
</svg>
